<?xml version="1.0" standalone="no"?>
<!DOCTYPE svg PUBLIC "-//W3C//DTD SVG 20010904//EN"
 "http://www.w3.org/TR/2001/REC-SVG-20010904/DTD/svg10.dtd">
<svg version="1.0" xmlns="http://www.w3.org/2000/svg"
 width="978.000000pt" height="978.000000pt" viewBox="0 0 978.000000 978.000000"
 preserveAspectRatio="xMidYMid meet">
<metadata>
Created by potrace 1.14, written by Peter Selinger 2001-2017
</metadata>
<g transform="translate(0.000000,978.000000) scale(0.100000,-0.100000)"
fill="#000000" stroke="none">
<path d="M7400 9742 c0 -26 -6 -42 -20 -52 -16 -12 -20 -26 -20 -72 0 -56 -1
-58 -26 -58 -35 0 -54 -22 -54 -64 0 -29 4 -36 20 -36 15 0 22 -9 27 -30 4
-25 10 -30 34 -30 32 0 51 -36 28 -51 -22 -14 -29 -11 -29 12 0 15 -5 19 -22
17 -17 -2 -27 5 -38 27 l-15 30 -3 -34 c-5 -46 5 -81 23 -81 8 0 15 5 15 10 0
6 5 10 10 10 15 0 12 -16 -5 -34 -12 -11 -14 -25 -9 -51 4 -23 2 -35 -5 -35
-6 0 -11 -9 -11 -20 0 -43 -20 -17 -22 28 -2 65 -2 70 -11 78 -4 4 -7 -7 -7
-25 0 -29 -18 -61 -34 -61 -3 0 -6 23 -6 50 0 28 -4 50 -10 50 -5 0 -10 -4
-10 -10 0 -5 -13 -10 -29 -10 -25 0 -30 -5 -35 -35 -4 -20 -4 -40 -1 -46 8
-12 -14 -109 -24 -109 -4 0 -14 -11 -21 -25 -11 -20 -21 -25 -52 -25 -38 0
-38 0 -38 -40 0 -33 3 -40 20 -40 18 0 20 -7 20 -60 l0 -60 -30 0 c-23 0 -30
-4 -30 -20 0 -11 -6 -20 -14 -20 -7 0 -16 -13 -19 -30 -6 -25 -11 -30 -37 -30
-16 0 -30 -4 -30 -10 0 -5 -22 -10 -50 -10 l-50 0 0 -80 0 -80 150 0 c143 0
150 1 150 20 0 11 5 20 10 20 6 0 10 -9 10 -20 0 -17 7 -20 50 -20 l50 0 0
-65 c0 -51 -3 -65 -15 -65 -8 0 -15 -7 -15 -15 0 -8 7 -15 15 -15 11 0 15 -11
15 -40 0 -38 2 -40 30 -40 28 0 30 -2 30 -40 l0 -40 40 0 40 0 0 -40 0 -40
-40 0 -40 0 0 -40 c0 -33 3 -40 20 -40 13 0 20 -7 20 -20 0 -16 7 -20 30 -20
23 0 30 -4 30 -20 0 -13 7 -20 20 -20 17 0 20 7 20 40 l0 40 40 0 c33 0 40 3
40 20 0 17 7 20 50 20 43 0 50 -3 50 -20 0 -13 7 -20 20 -20 13 0 20 -7 20
-20 0 -17 7 -20 45 -20 38 0 45 -3 45 -20 0 -17 -7 -20 -51 -20 -52 0 -79 -15
-79 -44 0 -14 -22 -16 -170 -16 -107 0 -170 -4 -170 -10 0 -5 -18 -10 -40 -10
l-40 0 0 -40 c0 -38 -2 -40 -30 -40 -28 0 -30 -2 -30 -40 0 -33 3 -40 20 -40
13 0 20 -7 20 -20 0 -11 5 -20 10 -20 6 0 10 -9 10 -20 0 -13 7 -20 20 -20 18
0 20 -7 20 -80 0 -73 -2 -80 -20 -80 -17 0 -20 -7 -20 -40 0 -33 3 -40 20 -40
13 0 20 -7 20 -20 0 -17 7 -20 40 -20 22 0 40 5 40 10 0 6 9 10 20 10 16 0 20
7 20 30 0 28 3 30 35 30 19 0 35 -4 35 -10 0 -5 5 -10 10 -10 6 0 10 14 10 30
0 17 5 30 10 30 6 0 10 -15 10 -32 0 -25 3 -29 10 -18 5 8 10 32 10 53 0 20 4
37 9 37 4 0 6 -11 3 -25 -6 -34 4 -67 29 -96 14 -16 23 -20 26 -11 3 8 30 12
84 12 72 0 79 2 79 20 0 17 7 20 40 20 l40 0 0 -40 c0 -22 5 -40 10 -40 6 0
10 -7 10 -16 0 -29 27 -44 81 -44 41 0 56 -5 72 -22 13 -16 21 -19 24 -10 5
14 43 16 43 2 0 -5 9 -10 20 -10 11 0 20 5 20 10 0 6 93 10 260 10 167 0 260
4 260 10 0 6 -18 10 -40 10 -22 0 -40 5 -40 10 0 6 5 10 10 10 6 0 10 10 11
23 l0 22 11 -22 c11 -23 48 -32 48 -13 0 6 9 10 20 10 13 0 20 -7 20 -20 0
-13 7 -20 20 -20 11 0 20 5 20 10 0 6 9 10 20 10 13 0 20 7 20 20 0 19 7 20
139 20 83 0 142 4 146 10 10 15 25 12 32 -7 12 -33 31 -43 77 -43 39 0 46 3
46 20 0 13 7 20 20 20 13 0 20 -7 20 -20 0 -13 7 -20 18 -20 10 0 24 9 32 20
14 19 26 20 292 20 l278 0 0 1180 0 1180 -1009 0 c-664 0 -1012 -3 -1016 -10
-4 -7 -12 -7 -25 0 -10 5 -89 10 -174 10 l-156 0 0 -38z m182 -61 c8 11 9 11
5 -2 -3 -9 0 -22 6 -28 8 -8 6 -11 -7 -11 -9 0 -14 -4 -11 -10 4 -6 -1 -7 -11
-3 -11 4 -13 8 -6 11 6 2 10 15 8 30 -2 15 -1 21 1 13 4 -12 6 -12 15 0z m988
4 c0 -8 -4 -15 -10 -15 -5 0 -10 7 -10 15 0 8 5 15 10 15 6 0 10 -7 10 -15z
m448 -59 c2 -10 -2 -23 -8 -30 -10 -8 -11 -6 -5 13 5 15 2 27 -6 33 -11 8 -11
9 1 5 8 -2 17 -12 18 -21z m-168 -6 c0 -5 -6 -10 -14 -10 -8 0 -16 -6 -19 -12
-2 -7 -8 -10 -12 -6 -9 8 16 37 33 38 6 0 12 -4 12 -10z m200 -22 c0 -5 -4 -8
-10 -8 -5 0 -10 10 -10 23 0 18 2 19 10 7 5 -8 10 -18 10 -22z m53 -28 c5 13
7 13 16 0 8 -12 6 -16 -9 -18 -11 -2 -18 -8 -15 -13 4 -5 -1 -9 -9 -9 -9 0
-16 7 -16 15 0 8 -3 14 -7 14 -5 -1 -15 -1 -23 0 -13 1 -13 3 0 10 8 6 18 7
24 4 5 -4 7 7 3 28 l-6 34 18 -40 c12 -27 20 -35 24 -25z m-1343 -20 c0 -40
-4 -70 -10 -70 -6 0 -10 30 -10 70 0 40 4 70 10 70 6 0 10 -30 10 -70z m998
27 c-2 -19 -7 -23 -25 -19 -23 4 -23 5 -6 23 25 24 33 23 31 -4z m82 3 c0 -5
-5 -10 -11 -10 -5 0 -7 5 -4 10 3 6 8 10 11 10 2 0 4 -4 4 -10z m-280 -21 c0
-11 -4 -18 -10 -14 -5 3 -7 12 -3 20 7 21 13 19 13 -6z m-1170 -29 c0 -16 -4
-30 -10 -30 -5 0 -10 14 -10 30 0 17 5 30 10 30 6 0 10 -13 10 -30z m1230 10
c0 -5 -7 -10 -16 -10 -8 0 -12 5 -9 10 3 6 10 10 16 10 5 0 9 -4 9 -10z m95 0
c-3 -5 -14 -10 -23 -9 -14 0 -13 2 3 9 27 11 27 11 20 0z m45 -19 c0 -15 -10
-20 -52 -25 -35 -5 -48 -10 -39 -16 8 -5 -7 -6 -37 -4 -33 3 -52 1 -52 -6 0
-5 -7 -10 -15 -10 -8 0 -15 5 -15 10 0 6 7 10 15 10 8 0 15 6 15 14 0 10 13
13 50 10 28 -2 50 0 50 5 0 7 48 27 73 30 4 1 7 -7 7 -18z m286 -7 c-4 -9 -9
-15 -11 -12 -3 3 -3 13 1 22 4 9 9 15 11 12 3 -3 3 -13 -1 -22z m-1366 -4 c0
-5 -13 -10 -30 -10 -16 0 -30 5 -30 10 0 6 14 10 30 10 17 0 30 -4 30 -10z
m560 -20 c0 -4 -7 -7 -15 -6 -23 3 -26 12 -5 13 11 1 20 -2 20 -7z m565 0 c4
-6 -7 -10 -25 -10 -18 0 -29 4 -25 10 3 6 15 10 25 10 10 0 22 -4 25 -10z
m-1129 -38 c-16 -2 -32 0 -37 5 -5 5 7 7 29 4 34 -5 35 -6 8 -9z m544 -12 c0
-16 -2 -30 -4 -30 -2 0 -6 14 -8 30 -3 17 -1 30 4 30 4 0 8 -13 8 -30z m-512
-7 c-10 -2 -26 -2 -35 0 -10 3 -2 5 17 5 19 0 27 -2 18 -5z m45 -53 c3 -11 1
-20 -4 -20 -5 0 -9 9 -9 20 0 11 2 20 4 20 2 0 6 -9 9 -20z m3 -33 c10 4 11 0
1 -20 -14 -30 -23 -27 -30 9 -3 17 -1 22 5 16 6 -6 16 -8 24 -5z m39 -28 c11
-17 -1 -21 -15 -4 -8 9 -8 15 -2 15 6 0 14 -5 17 -11z m1412 -31 c-3 -8 -6 -5
-6 6 -1 11 2 17 5 13 3 -3 4 -12 1 -19z m-1777 2 c0 -5 -7 -10 -15 -10 -8 0
-15 5 -15 10 0 6 7 10 15 10 8 0 15 -4 15 -10z m1756 -10 c0 -11 -4 -20 -8
-20 -10 0 -11 24 -1 33 9 9 9 10 9 -13z m-416 0 c0 -5 -5 -10 -11 -10 -5 0 -7
5 -4 10 3 6 8 10 11 10 2 0 4 -4 4 -10z m68 -12 c-8 -12 -21 -24 -29 -26 -8
-3 -3 7 10 22 30 32 39 34 19 4z m-1408 -18 c13 7 21 7 26 -1 4 -8 9 -7 16 2
8 11 9 11 5 -1 -2 -8 -9 -14 -15 -13 -6 2 -23 -2 -37 -7 -23 -9 -25 -7 -24 18
1 17 3 20 6 10 3 -14 9 -16 23 -8z m1792 11 c3 10 6 9 10 -3 5 -11 0 -18 -13
-21 -14 -4 -19 0 -19 16 0 16 3 18 9 8 7 -11 9 -11 13 0z m212 3 c9 -3 16 -12
16 -19 0 -10 -5 -11 -25 -2 -38 18 -31 36 9 21z m-1914 -10 c0 -3 -7 -12 -15
-20 -16 -17 -18 -14 -9 10 6 15 24 23 24 10z m-137 -48 c6 -15 -1 -26 -15 -26
-4 0 -8 9 -8 20 0 23 15 27 23 6z m807 -6 c0 -5 -4 -10 -10 -10 -5 0 -10 5
-10 10 0 6 5 10 10 10 6 0 10 -4 10 -10z m515 -42 c5 -4 0 -6 -13 -5 -22 1
-27 8 -15 20 3 4 9 4 12 0 3 -4 10 -11 16 -15z m795 12 c12 -8 11 -10 -5 -10
-12 0 -26 -5 -33 -12 -7 -7 -12 -8 -12 -2 0 11 20 34 30 34 3 0 12 -5 20 -10z
m-239 -137 c-12 -20 -14 -14 -5 12 4 9 9 14 11 11 3 -2 0 -13 -6 -23z m43 12
c-4 -8 -8 -15 -10 -15 -2 0 -4 7 -4 15 0 8 4 15 10 15 5 0 7 -7 4 -15z m361
-5 c3 -5 -1 -10 -9 -10 -9 0 -16 5 -16 10 0 6 4 10 9 10 6 0 13 -4 16 -10z
m-1278 -172 c-3 -8 -6 -5 -6 6 -1 11 2 17 5 13 3 -3 4 -12 1 -19z m1243 -12
c0 -2 -6 -9 -13 -15 -10 -8 -14 -7 -14 4 0 8 6 15 14 15 7 0 13 -2 13 -4z
m-960 -56 c0 -5 -4 -10 -10 -10 -5 0 -10 5 -10 10 0 6 5 10 10 10 6 0 10 -4
10 -10z m-1677 -62 c13 -16 21 -19 24 -10 3 6 13 12 24 12 10 0 19 5 19 10 0
6 5 10 10 10 6 0 10 -13 10 -30 0 -23 -4 -30 -20 -30 -11 0 -20 -4 -20 -10 0
-5 -10 -10 -22 -10 -19 0 -20 -2 -8 -10 13 -9 13 -11 0 -20 -25 -17 -50 -12
-50 10 0 11 -4 20 -10 20 -5 0 -10 9 -10 20 0 11 5 20 10 20 6 0 10 9 10 20 0
26 8 25 33 -2z m127 -8 c0 -5 -4 -10 -10 -10 -5 0 -10 5 -10 10 0 6 5 10 10
10 6 0 10 -4 10 -10z m2115 0 c3 -6 -1 -7 -9 -4 -18 7 -21 14 -7 14 6 0 13 -4
16 -10z m-165 -30 c0 -5 -4 -10 -10 -10 -5 0 -10 5 -10 10 0 6 5 10 10 10 6 0
10 -4 10 -10z m174 -5 c3 -8 1 -15 -5 -15 -6 0 -7 -5 -4 -11 4 -6 -2 -19 -14
-30 -21 -20 -61 -26 -61 -9 0 6 5 10 10 10 6 0 10 7 8 16 -2 10 3 19 10 21 6
3 12 -2 12 -9 0 -8 7 -15 15 -15 8 0 15 4 15 9 0 4 -6 8 -12 8 -9 0 -8 4 2 10
11 7 7 10 -18 10 -20 0 -31 4 -27 10 10 16 62 12 69 -5z m-2104 -11 c0 -8 -6
-22 -14 -30 -25 -24 -46 -17 -46 16 0 27 3 30 30 30 21 0 30 -5 30 -16z m-84
-41 c-11 -11 -17 4 -9 23 7 18 8 18 11 1 2 -10 1 -21 -2 -24z m1018 -239 c-4
-17 -2 -29 6 -34 11 -7 10 -12 -3 -25 -16 -15 -18 -15 -34 0 -16 16 -16 18 0
27 9 5 17 16 17 24 0 9 -5 12 -12 8 -7 -4 -8 -3 -4 5 4 6 12 9 17 6 5 -4 9 -1
9 4 0 6 2 11 5 11 3 0 2 -12 -1 -26z m1529 -51 c-7 -2 -21 -2 -30 0 -10 3 -4
5 12 5 17 0 24 -2 18 -5z m-447 -70 c-8 -8 -36 5 -36 17 0 7 6 7 21 0 11 -7
18 -14 15 -17z m284 -113 c0 -5 -7 -10 -15 -10 -8 0 -15 5 -15 10 0 6 7 10 15
10 8 0 15 -4 15 -10z m-1600 -80 c0 -5 -9 -10 -20 -10 -11 0 -20 5 -20 10 0 6
9 10 20 10 11 0 20 -4 20 -10z m70 0 c0 -5 -7 -10 -15 -10 -8 0 -15 5 -15 10
0 6 7 10 15 10 8 0 15 -4 15 -10z m1593 -115 c-7 -21 -13 -19 -13 6 0 11 4 18
10 14 5 -3 7 -12 3 -20z m-58 -96 c6 -1 -8 -5 -30 -8 -25 -4 -39 -11 -37 -19
1 -8 -1 -11 -6 -8 -10 6 -72 -51 -72 -67 0 -7 -5 -6 -12 1 -10 10 -6 19 19 41
18 16 29 32 25 36 -4 5 -2 5 5 1 7 -4 20 1 30 11 16 16 43 20 78 12z m-1685
-59 c0 -38 -2 -40 -30 -40 -28 0 -30 2 -30 40 0 38 2 40 30 40 28 0 30 -2 30
-40z m1949 -251 c1 8 4 12 7 8 3 -3 2 -13 -3 -22 -8 -14 -11 -15 -22 -1 -7 8
-9 21 -5 27 5 9 10 7 15 -7 5 -11 8 -13 8 -5z m-2169 -79 c0 -5 -9 -10 -20
-10 -11 0 -20 5 -20 10 0 6 9 10 20 10 11 0 20 -4 20 -10z m1740 -40 c0 -5 -9
-10 -20 -10 -11 0 -20 5 -20 10 0 6 9 10 20 10 11 0 20 -4 20 -10z m-1160 -60
c0 -5 -13 -10 -30 -10 -16 0 -30 5 -30 10 0 6 14 10 30 10 17 0 30 -4 30 -10z"/>
<path d="M6980 8710 c0 -5 5 -10 10 -10 6 0 10 5 10 10 0 6 -4 10 -10 10 -5 0
-10 -4 -10 -10z"/>
<path d="M8050 8360 c0 -5 5 -10 10 -10 6 0 10 5 10 10 0 6 -4 10 -10 10 -5 0
-10 -4 -10 -10z"/>
<path d="M7202 9618 c-6 -6 -12 -18 -12 -25 0 -9 -17 -13 -55 -13 -48 0 -55
-2 -55 -20 0 -13 -7 -20 -20 -20 -13 0 -20 -7 -20 -20 0 -13 7 -20 20 -20 13
0 20 -7 20 -20 0 -16 7 -20 30 -20 28 0 30 2 30 40 0 22 5 40 10 40 6 0 10 -4
10 -10 0 -5 9 -10 20 -10 17 0 20 7 20 39 0 22 5 41 12 43 6 2 9 10 7 16 -3
10 -7 10 -17 0z"/>
<path d="M7239 9456 c6 -7 9 -22 5 -32 -5 -18 -5 -18 9 -1 18 22 12 47 -10 47
-12 0 -13 -3 -4 -14z"/>
<path d="M7250 9368 c0 -20 5 -40 10 -43 13 -8 13 45 0 65 -7 11 -10 6 -10
-22z"/>
<path d="M7235 9300 c-3 -5 -1 -10 4 -10 6 0 11 5 11 10 0 6 -2 10 -4 10 -3 0
-8 -4 -11 -10z"/>
<path d="M6880 9190 c0 -5 9 -10 20 -10 11 0 20 5 20 10 0 6 -9 10 -20 10 -11
0 -20 -4 -20 -10z"/>
<path d="M6850 9070 c0 -5 7 -10 15 -10 8 0 15 5 15 10 0 6 -7 10 -15 10 -8 0
-15 -4 -15 -10z"/>
<path d="M6840 9030 c0 -5 9 -10 20 -10 11 0 20 5 20 10 0 6 -9 10 -20 10 -11
0 -20 -4 -20 -10z"/>
<path d="M6500 8940 c0 -33 -3 -40 -20 -40 -11 0 -20 -4 -20 -10 0 -5 -13 -10
-30 -10 -27 0 -30 -3 -30 -30 0 -25 4 -30 24 -30 20 0 25 -6 31 -40 6 -33 11
-40 30 -40 15 0 26 -7 30 -20 3 -11 15 -20 26 -20 14 0 19 7 19 30 0 17 5 30
13 30 8 0 7 4 -3 11 -12 8 -10 10 10 8 40 -2 48 0 54 17 5 14 4 15 -9 4 -13
-11 -15 -9 -15 13 0 14 5 24 13 23 6 0 13 4 15 9 2 9 -6 10 -38 6 -5 0 -7 -8
-4 -16 4 -10 0 -15 -15 -15 -20 0 -21 5 -21 80 l0 80 -30 0 c-28 0 -30 -2 -30
-40z"/>
<path d="M7093 8423 c-15 -6 -17 -43 -3 -43 6 0 10 -9 10 -20 0 -11 5 -20 10
-20 6 0 10 9 10 20 0 11 5 20 10 20 16 0 11 37 -6 44 -9 3 -16 6 -17 5 -1 0
-8 -3 -14 -6z"/>
<path d="M7090 8070 c0 -5 -11 -12 -25 -16 -41 -10 -31 -34 15 -34 38 0 40 2
40 30 0 20 -5 30 -15 30 -8 0 -15 -4 -15 -10z"/>
<path d="M7090 7510 c0 -5 7 -10 15 -10 8 0 15 5 15 10 0 6 -7 10 -15 10 -8 0
-15 -4 -15 -10z"/>
<path d="M9680 7391 c0 -5 6 -12 13 -15 10 -5 10 -7 0 -12 -18 -8 -17 -111 1
-130 23 -22 66 -18 66 6 0 11 5 20 10 20 6 0 10 9 10 20 0 11 -4 20 -10 20 -5
0 -10 9 -10 20 0 11 5 20 10 20 6 0 10 14 10 30 0 17 -4 30 -10 30 -5 0 -10
-4 -10 -10 0 -5 -9 -10 -20 -10 -11 0 -20 5 -20 10 0 6 -9 10 -20 10 -11 0
-20 -4 -20 -9z"/>
<path d="M5822 6853 c-23 -20 -56 -103 -56 -142 -1 -20 -7 -27 -26 -29 -32 -5
-60 -30 -60 -53 0 -29 23 -72 53 -100 l27 -25 -22 -11 c-35 -17 -67 -22 -74
-12 -8 14 -80 11 -93 -4 -6 -8 -9 -16 -6 -19 3 -2 7 -23 10 -46 3 -26 16 -52
35 -74 27 -29 36 -54 31 -82 -1 -5 9 -6 23 -4 34 7 53 -17 58 -71 3 -37 0 -46
-20 -59 -23 -15 -26 -15 -47 10 -17 20 -34 28 -66 30 -43 3 -44 4 -47 43 -2
22 -10 47 -18 56 -10 11 -14 37 -13 80 0 35 0 83 0 106 -1 23 3 45 9 48 15 9
12 23 -6 27 -14 3 -13 7 6 31 12 15 20 30 18 33 -3 2 -25 10 -49 17 -55 16
-63 42 -17 51 41 8 89 52 80 75 -8 24 -23 31 -64 31 -34 0 -40 4 -55 38 -24
51 -48 51 -112 3 -72 -54 -83 -76 -64 -135 9 -25 20 -46 25 -46 5 0 18 -9 30
-19 11 -11 26 -17 34 -14 8 3 14 1 14 -5 0 -5 -15 -13 -32 -16 -18 -3 -46 -17
-63 -30 -26 -22 -29 -27 -17 -45 6 -11 12 -23 12 -25 0 -2 -32 -4 -70 -4 l-71
0 -24 48 c-22 44 -44 59 -82 60 -8 0 -13 -13 -13 -34 0 -19 -8 -44 -19 -57
-18 -22 -19 -22 -44 -6 -14 9 -33 14 -41 11 -10 -4 -16 4 -21 25 -8 38 -27 53
-62 49 -22 -2 -29 -9 -31 -30 -4 -38 -28 -56 -37 -28 -8 27 -62 60 -84 53 -9
-3 -24 -13 -34 -21 -15 -14 -26 -14 -83 -3 -36 8 -66 12 -68 10 -26 -39 -36
-65 -36 -99 0 -38 11 -52 25 -30 10 16 47 12 82 -10 27 -16 31 -23 24 -42 -9
-26 -56 -41 -82 -28 -25 14 -25 14 -59 -20 -30 -29 -39 -63 -20 -75 18 -11 12
-63 -9 -70 -11 -3 -26 -19 -33 -35 -8 -18 -26 -35 -48 -44 -19 -8 -46 -26 -59
-40 -25 -27 -64 -34 -91 -16 -13 9 -13 11 0 20 8 5 27 10 42 10 16 0 29 7 32
18 3 9 22 34 42 55 40 42 39 61 -2 71 -30 8 -84 -10 -84 -28 0 -6 -12 -20 -27
-31 -63 -46 -75 -64 -69 -101 7 -36 7 -37 -46 -48 -21 -5 -28 -3 -28 9 0 8 -7
15 -15 15 -8 0 -15 5 -15 10 0 13 -43 13 -57 -1 -8 -8 -16 -3 -28 18 -10 17
-35 41 -56 54 -43 26 -53 63 -20 74 16 5 17 9 7 30 -17 38 -86 55 -86 22 0 -7
-18 -29 -40 -50 -43 -40 -49 -57 -25 -77 19 -16 19 -49 1 -56 -24 -9 -56 15
-56 42 0 14 -9 38 -20 52 -15 18 -19 34 -15 53 7 32 -7 44 -50 41 -39 -3 -44
-10 -49 -63 -2 -24 -4 -47 -5 -51 -2 -16 -33 -7 -54 16 -40 44 -102 42 -78 -2
6 -11 11 -31 11 -44 0 -13 9 -29 20 -36 27 -17 25 -33 -11 -86 -30 -45 -60
-59 -75 -35 -3 6 -15 8 -26 6 -13 -4 -22 1 -28 17 -5 13 -20 32 -34 44 -14 11
-26 27 -26 36 0 27 -38 40 -65 22 -14 -9 -33 -16 -45 -16 -11 0 -35 -15 -54
-32 -32 -31 -34 -36 -31 -88 2 -30 1 -81 -2 -113 -5 -50 -10 -61 -31 -70 -21
-10 -27 -9 -36 7 -19 32 -63 76 -70 69 -10 -10 -7 -58 4 -69 8 -8 7 -19 -1
-37 -14 -30 -17 -31 -53 -17 -31 11 -49 -11 -36 -46 14 -35 1 -62 -31 -69 -28
-6 -29 -9 -29 -61 0 -49 -2 -54 -22 -55 -40 -2 -53 2 -70 22 -9 10 -23 19 -31
19 -9 0 -18 6 -20 13 -4 8 -8 8 -14 2 -4 -6 -20 -16 -35 -24 -27 -14 -39 -51
-18 -51 13 0 13 -37 0 -45 -13 -8 -13 -42 0 -50 5 -3 26 1 46 10 54 22 70 19
94 -20 24 -38 21 -61 -7 -72 -21 -8 -33 -20 -51 -52 -12 -20 -10 -25 13 -47
18 -17 24 -30 20 -44 -5 -15 -2 -20 10 -20 13 0 16 -6 11 -22 -3 -13 -6 -31
-6 -40 0 -13 -8 -18 -30 -18 -20 0 -33 6 -37 18 -13 33 -33 43 -103 49 -70 6
-83 16 -58 41 7 7 25 12 40 12 35 0 37 24 6 50 l-23 18 24 26 c14 14 23 28 20
30 -19 16 -84 37 -104 34 -18 -4 -25 -1 -25 10 0 23 -17 2 -25 -30 -7 -27 0
-34 28 -29 10 2 9 -26 -5 -72 -8 -26 -22 -46 -40 -56 -30 -17 -36 -31 -15 -32
6 0 3 -4 -8 -9 -11 -4 -30 -6 -42 -3 -36 8 -31 -42 7 -77 17 -16 30 -38 30
-52 0 -13 6 -30 13 -37 9 -11 9 -14 0 -18 -10 -3 -9 -9 3 -21 15 -14 15 -17 0
-28 -15 -10 -13 -15 14 -44 20 -22 30 -42 30 -64 0 -21 7 -35 20 -44 12 -7 18
-17 15 -22 -3 -4 2 -16 11 -24 8 -9 12 -16 7 -16 -4 0 3 -6 17 -13 17 -9 26
-22 28 -45 3 -31 4 -32 53 -32 39 0 51 -4 55 -17 3 -10 10 -26 15 -36 15 -28
-5 -55 -36 -50 -24 5 -29 13 -26 41 2 13 -12 15 -45 6 -18 -5 -20 -10 -14 -38
4 -17 12 -41 18 -53 9 -16 9 -35 0 -77 l-11 -56 -40 0 c-29 0 -45 -6 -60 -22
-13 -16 -21 -19 -24 -10 -3 6 -11 12 -20 12 -17 0 -36 18 -46 43 -3 9 -13 17
-22 17 -8 0 -15 5 -15 10 0 6 23 10 50 10 43 0 50 3 50 20 0 11 -4 20 -10 20
-5 0 -10 9 -10 20 0 11 -4 20 -10 20 -15 0 -12 31 6 51 10 11 12 19 5 24 -6 3
-11 2 -11 -4 0 -6 -11 1 -24 14 -20 20 -24 31 -19 60 4 27 2 35 -10 35 -8 0
-18 6 -20 13 -4 8 -8 9 -14 1 -4 -6 -16 -13 -25 -17 -10 -3 -18 -13 -18 -22 0
-10 -10 -15 -30 -15 -16 0 -30 -4 -30 -10 0 -5 5 -10 10 -10 6 0 10 -13 10
-30 0 -35 19 -41 21 -7 1 14 5 9 11 -17 8 -29 8 -40 -2 -46 -11 -7 -10 -11 2
-24 9 -8 16 -32 16 -53 0 -20 5 -39 11 -41 16 -5 14 -32 -3 -32 -7 0 -16 -8
-19 -17 -2 -10 -8 -25 -11 -34 -5 -11 2 -19 20 -28 25 -11 26 -14 12 -28 -22
-21 -54 -8 -64 25 -5 20 -8 23 -11 10 -5 -20 -19 -24 -25 -7 -3 9 -9 9 -25 0
-12 -6 -38 -11 -57 -11 -29 0 -36 -4 -36 -20 0 -13 7 -20 19 -20 16 0 21 -10
27 -56 3 -30 4 -75 1 -98 -6 -43 -6 -43 33 -56 22 -7 40 -16 40 -20 0 -16 66
-8 83 11 20 22 50 25 69 7 18 -18 48 -21 48 -6 0 7 -23 33 -50 58 -61 54 -66
80 -14 80 32 0 36 3 31 21 -3 11 -3 27 0 35 9 24 55 42 96 36 38 -4 41 -12 37
-77 -1 -14 30 -34 44 -29 27 10 66 -5 66 -25 0 -26 -27 -45 -61 -43 -16 1 -29
-2 -29 -8 0 -5 9 -10 21 -10 17 0 20 -5 17 -37 -3 -35 -5 -38 -33 -37 -16 0
-38 4 -47 8 -11 5 -23 1 -36 -12 -12 -12 -33 -22 -49 -24 -22 -2 -29 -9 -31
-30 -3 -26 -1 -28 33 -28 43 0 75 -15 75 -35 0 -10 10 -15 31 -15 17 0 37 -6
44 -14 8 -7 39 -17 68 -20 45 -6 56 -11 61 -29 10 -37 7 -43 -29 -60 -20 -9
-39 -25 -42 -34 -16 -43 -65 -44 -105 -2 -22 22 -33 28 -41 20 -24 -24 -77 -2
-77 32 0 20 -72 42 -97 29 -12 -7 -25 -7 -34 -1 -12 7 -12 9 1 9 31 1 -14 20
-47 20 -18 0 -33 5 -33 12 0 6 -9 1 -19 -11 -11 -12 -22 -22 -25 -21 -19 3
-106 -14 -106 -20 0 -20 13 -40 26 -40 8 0 14 -4 14 -10 0 -5 13 -10 29 -10
16 0 31 -6 34 -15 7 -18 2 -21 -44 -30 -26 -5 -39 -2 -48 9 -12 14 -10 16 8
16 26 0 27 8 4 26 -29 22 -43 16 -43 -17 0 -27 -2 -30 -16 -19 -13 11 -16 10
-21 -8 -3 -12 -12 -22 -19 -22 -8 0 -17 -8 -21 -17 -9 -26 -34 -53 -44 -48 -4
3 -10 1 -14 -5 -3 -5 -15 -10 -26 -10 -20 0 -20 0 0 -29 23 -32 27 -51 11 -51
-15 0 -12 -36 5 -50 17 -14 40 -1 50 28 2 10 14 23 25 30 21 13 39 7 82 -28
22 -17 22 -23 4 -63 -24 -54 -25 -75 -5 -114 19 -37 25 -83 12 -83 -5 0 -20
-11 -36 -24 -23 -20 -25 -25 -13 -35 8 -7 18 -26 21 -42 8 -36 32 -38 60 -5
18 21 24 22 62 14 33 -7 44 -15 49 -34 11 -41 -1 -54 -50 -54 -25 0 -47 -4
-51 -9 -3 -5 -19 -12 -35 -16 -17 -4 -30 -10 -30 -15 0 -14 -49 -40 -64 -34
-9 3 -16 17 -16 31 0 23 -3 25 -30 20 -28 -6 -30 -5 -30 24 0 16 7 44 16 60
18 36 11 48 -16 31 -11 -7 -26 -12 -34 -12 -22 0 -28 -17 -16 -40 17 -32 -11
-54 -56 -45 -34 6 -36 8 -30 36 6 32 -9 41 -17 9 -10 -40 -27 -20 -27 34 0 45
-3 54 -20 59 -16 4 -20 0 -20 -20 0 -13 -4 -21 -10 -18 -18 11 -10 -30 8 -44
13 -9 19 -27 21 -59 2 -58 22 -83 46 -58 20 19 35 20 59 3 29 -21 16 -51 -22
-55 -20 -2 -36 -10 -39 -20 -4 -9 -11 -20 -16 -23 -5 -4 -5 -15 2 -27 6 -11
11 -32 11 -46 0 -14 5 -26 10 -26 6 0 10 9 10 20 0 17 7 20 39 20 48 0 53 -10
60 -122 1 -10 6 -18 12 -18 5 0 7 5 4 10 -3 6 10 1 29 -11 48 -28 155 -32 181
-6 11 11 24 15 34 11 9 -4 44 -12 78 -18 34 -6 67 -16 74 -23 20 -20 0 -34
-37 -27 -26 5 -40 2 -55 -12 -12 -11 -16 -20 -9 -24 6 -4 13 -24 17 -44 8 -49
-12 -64 -44 -34 -17 16 -30 19 -53 14 -18 -3 -41 -1 -51 5 -16 8 -26 7 -44 -5
-32 -21 -51 -20 -59 2 -12 33 -37 72 -46 72 -5 0 -21 -5 -37 -12 -15 -6 -68
-15 -118 -19 -136 -11 -195 -20 -203 -33 -10 -16 -32 -79 -32 -93 0 -7 9 -13
20 -13 13 0 20 -7 20 -20 0 -11 5 -20 10 -20 6 0 10 9 10 20 0 18 7 20 68 20
55 0 72 -4 86 -19 17 -19 17 -20 -3 -30 -11 -6 -27 -11 -35 -11 -9 0 -24 -13
-34 -29 -14 -23 -21 -27 -40 -20 -12 5 -22 15 -22 23 0 18 -49 27 -74 14 -19
-10 -19 -11 -2 -23 14 -11 17 -25 15 -67 -3 -45 0 -53 16 -57 23 -4 45 -25 45
-43 0 -7 9 -24 20 -38 15 -20 21 -23 31 -13 21 21 35 15 77 -27 43 -44 70 -50
97 -20 10 11 25 20 33 20 8 0 20 7 26 16 7 9 24 17 39 17 15 1 29 8 32 15 6
17 40 15 55 -3 8 -10 9 -15 2 -15 -17 0 -52 -42 -52 -62 0 -11 -7 -18 -19 -18
-32 0 -51 -27 -46 -65 4 -32 3 -35 -20 -35 -14 0 -28 7 -31 15 -7 17 -104 22
-104 5 0 -9 36 -15 68 -11 6 1 12 -3 12 -9 0 -5 -5 -10 -11 -10 -8 0 -8 -4 1
-15 9 -11 26 -13 71 -8 70 7 77 -7 29 -55 -38 -39 -40 -72 -5 -72 14 0 28 -7
31 -15 5 -13 10 -12 34 5 16 11 32 29 35 40 9 27 49 26 75 -2 11 -12 18 -29
15 -38 -4 -8 -11 -36 -17 -62 -7 -29 -22 -58 -40 -75 -27 -26 -29 -26 -46 -10
-12 13 -14 20 -5 25 24 15 17 33 -22 51 -42 19 -68 16 -73 -9 -2 -8 -10 -18
-17 -23 -8 -4 -20 -13 -27 -21 -8 -7 -27 -20 -43 -28 -27 -14 -27 -16 -8 -22
11 -3 25 -17 31 -31 17 -37 -4 -42 -61 -15 -28 14 -38 55 -15 62 9 3 8 9 -4
22 -17 17 -92 20 -86 4 2 -4 -7 -15 -20 -24 -18 -13 -37 -15 -90 -9 -59 6 -70
4 -91 -14 -30 -26 -39 -26 -71 -1 -14 11 -31 20 -37 20 -7 0 -13 4 -13 9 0 13
-27 21 -45 15 -18 -7 -20 -31 -2 -37 8 -2 12 -25 11 -69 -1 -92 -5 -98 -59
-98 -25 0 -45 4 -45 9 0 5 -14 11 -30 15 -17 3 -41 16 -54 29 -26 26 -58 38
-74 28 -5 -3 -13 -32 -17 -63 -6 -47 -5 -58 7 -58 23 0 68 -24 68 -37 0 -6 13
-24 30 -40 19 -18 30 -38 30 -55 0 -24 -4 -28 -27 -28 -16 0 -39 9 -53 20 -14
11 -31 20 -39 20 -20 0 -80 -42 -86 -60 -8 -24 -62 -41 -90 -28 -25 11 -85 -5
-85 -23 0 -5 -10 -9 -23 -9 -29 0 -68 -29 -49 -36 6 -3 9 -10 6 -16 -4 -7 4
-8 25 -3 36 8 97 -10 105 -30 3 -8 11 -15 17 -15 6 0 29 -16 51 -36 34 -30 44
-34 71 -28 18 3 35 11 39 17 3 5 20 10 37 9 17 0 33 4 36 9 4 5 24 9 46 9 41
0 44 -4 40 -56 -2 -23 20 -37 43 -28 7 3 22 21 32 39 14 27 16 37 6 47 -18 18
-14 37 10 47 13 5 38 15 55 23 19 7 33 20 33 30 0 26 18 31 29 9 13 -24 14
-91 2 -91 -8 0 -23 -31 -36 -77 -4 -13 -2 -23 4 -23 6 0 35 -19 66 -41 52 -40
67 -59 45 -59 -5 0 -10 -9 -10 -20 0 -11 -6 -20 -14 -20 -18 0 -37 -23 -28
-35 11 -16 121 -12 132 4 11 19 101 21 107 4 3 -7 -1 -13 -9 -13 -7 0 -23 -18
-36 -40 -12 -22 -30 -40 -40 -40 -23 -1 -50 -22 -45 -36 3 -8 18 -9 46 -3 23
4 54 5 69 2 28 -6 49 8 61 39 4 10 17 18 30 18 14 0 37 10 52 22 26 20 26 22
9 35 -20 15 -23 12 40 47 35 19 53 23 60 16 8 -8 8 -13 -1 -18 -6 -4 -10 -30
-10 -59 1 -38 -4 -58 -18 -73 -12 -13 -18 -33 -17 -50 4 -32 0 -35 -46 -45
-21 -4 -32 -3 -32 5 0 6 4 9 9 5 14 -8 25 35 13 47 -6 6 -15 7 -21 4 -14 -9
-14 -73 -1 -81 6 -3 10 -17 10 -31 0 -29 27 -87 38 -80 11 7 39 -18 43 -38 3
-13 18 -23 49 -30 44 -11 45 -12 43 -49 -2 -23 2 -37 10 -38 7 -1 17 -2 22 -4
6 -1 25 -3 43 -3 30 -2 32 -4 32 -42 0 -22 -4 -40 -10 -40 -5 0 -10 -18 -10
-40 l0 -40 142 0 c88 0 138 4 133 9 -6 5 -28 12 -50 14 -22 3 -57 12 -77 20
l-37 16 0 63 c0 76 6 98 25 98 39 0 61 63 26 74 -30 10 -24 44 14 74 29 23 33
31 28 57 -4 25 -1 33 18 42 34 17 95 25 129 18 24 -5 29 -12 29 -36 0 -45 -29
-109 -50 -109 -10 0 -23 -7 -30 -15 -10 -13 -9 -19 6 -36 10 -12 17 -32 16
-45 -5 -34 29 -32 46 4 7 15 30 39 52 54 43 30 49 48 25 68 -21 18 -19 54 5
75 20 18 21 18 43 -3 13 -13 36 -22 54 -22 64 0 88 -82 31 -103 -11 -4 -18
-17 -18 -32 0 -32 -48 -55 -132 -63 -51 -4 -58 -7 -58 -26 0 -12 -12 -34 -26
-49 -23 -25 -31 -28 -64 -22 -32 5 -40 3 -49 -14 -9 -16 -7 -21 10 -26 22 -7
79 12 79 26 0 5 5 9 11 9 6 0 9 -7 6 -14 -4 -10 -1 -13 8 -10 7 3 16 12 19 20
7 18 30 18 46 -1 10 -12 10 -21 2 -40 -7 -15 -8 -26 -2 -30 6 -4 10 -15 10
-26 0 -18 8 -19 130 -19 l130 0 0 29 c0 28 -1 28 -50 23 -47 -4 -49 -3 -56 23
-4 18 -1 39 9 59 9 17 17 42 19 56 3 24 5 25 75 24 72 -2 73 -1 73 24 0 18 16
42 51 78 49 48 54 50 81 40 35 -13 33 -34 -6 -56 -41 -22 -45 -40 -9 -40 20 0
33 8 44 27 16 25 20 26 94 24 43 -1 88 -6 101 -11 13 -5 24 -6 24 -1 0 10 48
2 56 -10 7 -12 74 -12 74 0 0 22 34 41 74 41 51 0 82 -19 72 -45 -8 -23 20
-44 60 -45 17 0 33 -3 37 -6 21 -21 -67 -121 -115 -131 -24 -5 -28 -11 -28
-38 0 -29 2 -31 29 -27 22 3 33 -1 43 -17 10 -17 23 -21 60 -21 27 0 48 5 48
10 0 13 97 13 105 0 8 -13 125 -13 125 0 0 6 7 10 15 10 8 0 15 -4 15 -10 0
-7 461 -10 1364 -10 l1364 0 4 31 c6 40 -17 88 -48 99 -32 13 -30 21 12 47 71
46 110 40 112 -17 0 -16 3 -34 7 -39 3 -5 42 -9 88 -9 55 0 94 -5 119 -16 21
-9 48 -16 60 -16 43 0 49 -13 23 -44 -14 -16 -25 -31 -25 -33 0 -1 23 -3 50
-3 43 0 50 3 50 20 0 28 56 28 65 0 6 -20 15 -20 600 -20 518 0 594 2 599 15
7 20 -3 46 -26 68 -14 14 -16 22 -8 37 5 10 10 30 10 44 0 21 -5 26 -24 26
-13 0 -37 7 -52 15 -16 8 -37 15 -46 15 -23 0 -24 62 -2 115 8 20 13 40 9 43
-3 3 9 20 26 38 l32 33 -27 11 c-15 5 -34 10 -42 10 -26 0 -62 -30 -73 -61 -8
-22 -16 -29 -36 -29 -22 0 -30 8 -47 47 -11 27 -25 50 -29 51 -5 2 -9 10 -9
17 0 43 -78 17 -132 -43 -21 -23 -39 -42 -40 -42 -2 0 -4 12 -5 27 -1 30 -25
52 -65 60 -23 5 -27 9 -22 29 4 15 2 24 -5 24 -23 0 -51 40 -51 75 0 24 -6 39
-20 47 -25 16 -26 28 0 28 10 0 25 10 31 22 10 18 8 24 -7 35 -11 8 -29 16
-40 19 -24 6 -44 42 -44 79 0 14 -4 25 -10 25 -5 0 -10 14 -10 30 0 25 4 30
25 30 19 0 25 -5 25 -22 0 -46 23 -60 100 -62 30 -1 37 3 49 31 18 41 40 42
47 3 9 -40 39 -48 70 -19 35 33 26 68 -41 168 -64 94 -71 121 -32 121 27 0 41
10 50 33 4 9 20 20 37 23 17 4 33 11 36 15 3 5 25 9 50 9 54 0 136 19 147 34
4 7 10 8 15 1 4 -5 21 -20 39 -32 26 -18 32 -20 37 -8 3 8 10 15 16 15 15 0
12 -53 -5 -87 -23 -46 -30 -130 -11 -148 8 -8 20 -15 26 -15 18 0 41 -27 43
-50 1 -11 6 -20 12 -20 5 -1 39 -3 75 -6 114 -9 179 -6 195 10 23 23 18 50
-15 79 -38 34 -38 41 3 52 61 19 73 110 16 122 -32 6 -42 16 -45 49 -4 40 77
47 102 9 21 -32 52 -32 83 0 13 14 18 25 11 25 -6 0 -8 5 -5 10 4 6 11 8 16 5
5 -4 9 8 9 24 0 24 4 31 19 31 11 0 22 -8 25 -18 8 -24 44 -25 59 -1 6 10 22
19 34 19 13 0 33 10 44 21 17 17 23 19 30 8 6 -10 9 -11 9 -1 0 7 13 12 29 12
46 0 83 72 44 87 -15 6 -15 7 3 14 10 4 36 8 56 8 50 1 68 10 68 32 0 10 5 19
11 19 6 0 9 6 6 13 -4 10 2 13 19 9 14 -2 24 0 24 7 0 6 -4 11 -10 11 -5 0
-10 14 -10 30 0 35 10 38 30 10 8 -11 22 -20 32 -20 11 0 18 7 18 20 0 16 7
20 30 20 17 0 30 -4 30 -10 0 -5 -9 -10 -20 -10 -11 0 -20 -4 -20 -10 0 -5 9
-10 19 -10 11 0 21 -4 23 -9 2 -4 41 -11 88 -15 47 -4 92 -8 101 -9 10 -1 15
-7 11 -16 -4 -11 -1 -13 14 -7 37 14 74 18 86 9 7 -5 27 -10 44 -12 l31 -2 2
90 c1 58 -2 91 -9 91 -5 0 -10 -4 -10 -10 0 -5 -4 -10 -10 -10 -18 0 -10 31
15 55 13 14 36 25 50 25 18 0 25 5 25 20 0 19 7 20 110 20 l110 0 0 243 -1
244 -49 -5 c-33 -3 -50 -1 -50 7 0 22 -39 12 -42 -11 -3 -24 -16 -26 -77 -12
-20 4 -22 7 -10 15 12 8 12 10 0 18 -12 8 -12 12 2 25 8 9 23 16 31 16 9 0 16
5 16 10 0 6 9 10 20 10 17 0 20 7 20 40 0 22 -4 40 -10 40 -5 0 -10 9 -10 20
0 11 5 20 10 20 6 0 10 -9 10 -20 0 -18 7 -20 60 -20 53 0 60 -2 60 -20 0 -11
5 -20 10 -20 6 0 10 40 10 100 0 93 -1 100 -20 100 -11 0 -20 5 -20 10 0 6 9
10 20 10 20 0 20 7 20 849 0 670 -3 850 -12 854 -10 4 -9 8 2 16 13 10 13 12
0 22 -11 8 -12 12 -2 16 18 7 18 1299 0 1307 -10 5 -10 7 0 12 14 7 17 104 2
104 -5 0 -10 18 -10 40 0 38 -2 40 -30 40 l-30 0 0 -60 c0 -53 -2 -60 -20 -60
-15 0 -20 -7 -20 -29 0 -16 6 -31 13 -34 7 -2 8 -8 3 -13 -5 -5 -11 -4 -13 4
-6 15 -103 17 -103 2 0 -5 -7 -10 -16 -10 -23 0 -44 -25 -44 -54 0 -24 -3 -26
-46 -26 -28 0 -51 -6 -61 -16 -10 -9 -26 -14 -42 -11 -19 4 -32 -3 -53 -25
-26 -28 -32 -30 -72 -24 -49 8 -76 -9 -76 -47 0 -18 -2 -19 -11 -7 -8 11 -12
12 -16 3 -2 -8 -22 -13 -44 -13 -21 0 -39 -4 -39 -10 0 -5 9 -10 20 -10 11 0
20 -4 20 -10 0 -10 -27 -15 -62 -12 -10 1 -18 -3 -18 -8 0 -6 -9 -10 -20 -10
-11 0 -20 -4 -20 -9 0 -5 -15 -11 -32 -15 -27 -5 -30 -9 -18 -17 12 -9 11 -9
-5 -3 -40 14 -82 16 -96 2 -25 -23 -114 -49 -185 -53 -85 -5 -171 -19 -204
-33 -22 -9 -23 -11 -5 -13 29 -2 -31 -16 -77 -18 -34 -1 -50 -13 -30 -24 4 -2
1 -2 -6 -1 -7 2 -15 -3 -19 -12 -3 -8 -12 -13 -20 -10 -8 3 -21 -1 -30 -10 -8
-8 -28 -18 -44 -21 -24 -4 -29 -11 -29 -34 0 -21 -5 -29 -18 -29 -10 0 -24 -9
-32 -20 -8 -11 -22 -20 -32 -20 -10 0 -18 -4 -18 -10 0 -6 -27 -10 -60 -10
-52 0 -60 -3 -60 -18 0 -14 -8 -19 -30 -19 -26 0 -30 4 -30 27 0 25 -4 28 -45
33 -58 8 -106 -1 -127 -26 -10 -11 -31 -21 -47 -23 -24 -3 -36 4 -69 41 -39
44 -41 45 -102 45 -53 0 -61 2 -56 16 3 9 6 26 6 39 0 20 6 24 38 27 26 2 36
7 35 18 -7 46 -24 115 -31 122 -4 4 -27 9 -50 10 -31 1 -47 -4 -61 -19 -15
-15 -37 -21 -102 -26 -45 -4 -85 -5 -87 -2 -2 2 2 11 9 20 40 48 51 56 69 50
33 -11 60 12 60 50 0 23 5 35 13 35 8 0 22 9 32 20 17 19 17 21 1 39 -10 11
-38 25 -62 32 -52 16 -122 83 -125 120 -5 56 0 65 51 88 47 21 50 25 50 60 0
47 17 69 55 73 48 5 48 72 0 98 -21 11 -31 11 -66 0 -32 -11 -45 -11 -60 -2
-34 21 -57 13 -96 -33 -26 -32 -42 -43 -55 -39 -10 3 -18 2 -18 -3 0 -4 -12
-16 -25 -26 -23 -17 -25 -17 -35 3 -7 14 -8 37 -2 71 12 62 -6 91 -50 82 -16
-3 -28 -9 -28 -14 0 -5 -24 -9 -53 -9 -65 0 -92 -22 -85 -70 4 -26 2 -30 -21
-32 -45 -2 -49 -3 -57 -11 -15 -15 -24 -6 -18 18 4 18 1 32 -11 45 -16 18 -16
20 -1 35 9 9 32 19 51 22 41 7 48 33 13 48 -30 14 -33 31 -6 39 24 6 88 60 88
73 0 5 -9 14 -21 21 -19 12 -20 19 -14 67 4 39 2 61 -9 83 -14 28 -14 32 4 55
23 29 26 62 7 74 -9 5 -13 29 -13 68 l1 60 -35 0 -35 0 -6 -93 c-7 -107 -13
-115 -76 -106 -27 4 -51 1 -70 -8 -89 -46 -99 -49 -126 -39 -42 16 -52 55 -26
97 11 19 25 34 30 34 5 0 22 14 37 30 16 17 39 30 51 30 19 0 21 6 21 50 0 38
-4 52 -19 60 -28 15 -35 13 -64 -16 -31 -31 -57 -26 -57 10 0 39 -17 73 -39
79 -17 4 -21 13 -21 42 0 58 -51 91 -101 64 -16 -8 -19 -17 -14 -40 4 -18 3
-29 -4 -29 -23 0 -27 -2 -47 -21 -20 -19 -20 -19 -37 16 -14 28 -22 35 -46 35
-18 0 -38 -9 -50 -21 -16 -18 -26 -20 -60 -14 -23 4 -41 11 -41 16 0 16 -55
79 -69 79 -5 0 -18 -8 -29 -17z m435 -80 c-3 -10 -5 -2 -5 17 0 19 2 27 5 18
2 -10 2 -26 0 -35z m-847 -193 c0 -5 -8 -10 -17 -10 -15 0 -16 2 -3 10 19 12
20 12 20 0z m-107 -193 c8 -21 -7 -39 -26 -31 -20 7 -21 11 -4 29 15 18 24 18
30 2z m1161 -83 c18 -7 23 -79 6 -89 -9 -5 -147 13 -158 20 -5 4 21 65 28 65
5 0 12 -9 15 -20 8 -26 18 -25 52 5 31 27 34 28 57 19z m-1869 -119 c25 -24
31 -49 19 -79 -7 -18 -94 -23 -94 -6 0 5 -11 12 -24 16 -18 4 -28 18 -39 50
l-14 44 64 0 c55 0 68 -4 88 -25z m-70 -126 c0 -7 -8 -15 -17 -17 -18 -3 -25
18 -11 32 10 10 28 1 28 -15z m-1341 -48 c8 -12 -28 -51 -48 -51 -19 0 -21 25
-3 45 14 16 43 20 51 6z m2836 -62 c0 -5 -4 -9 -10 -9 -5 0 -10 7 -10 16 0 8
5 12 10 9 6 -3 10 -10 10 -16z m-2935 -18 c0 -23 -19 -23 -33 0 -12 19 -11 20
10 17 13 -2 23 -9 23 -17z m3795 -1 c0 -5 -10 -10 -22 -10 -19 0 -20 2 -8 10
19 13 30 13 30 0z m-1964 -87 c-10 -10 -19 5 -10 18 6 11 8 11 12 0 2 -7 1
-15 -2 -18z m-776 -38 c0 -42 -34 -69 -74 -59 -31 8 -32 8 -4 47 26 38 37 47
61 47 13 0 17 -8 17 -35z m1880 -50 c0 -8 -4 -15 -9 -15 -5 0 -11 7 -15 15 -3
9 0 15 9 15 8 0 15 -7 15 -15z m-2023 -47 c-3 -7 -5 -2 -5 12 0 14 2 19 5 13
2 -7 2 -19 0 -25z m2103 22 c0 -5 -7 -10 -15 -10 -8 0 -15 5 -15 10 0 6 7 10
15 10 8 0 15 -4 15 -10z m-1856 -75 c18 -45 18 -46 0 -63 -11 -9 -25 -29 -33
-44 -9 -18 -22 -28 -37 -28 -13 0 -35 -5 -49 -12 -22 -10 -28 -9 -36 3 -12 20
-12 23 11 49 11 13 20 26 20 30 0 4 11 12 25 18 14 7 28 17 30 24 20 56 26 68
37 68 7 0 21 -20 32 -45z m1539 15 c-6 -21 -28 -27 -38 -10 -9 15 3 30 25 30
13 0 17 -5 13 -20z m617 -41 c0 -14 -17 -10 -23 5 -4 10 -1 13 9 9 7 -3 14 -9
14 -14z m-920 -20 c0 -14 -17 -10 -23 5 -4 10 -1 13 9 9 7 -3 14 -9 14 -14z
m4030 -23 c0 -12 -7 -13 -31 -6 -46 13 -48 20 -6 20 25 0 37 -4 37 -14z
m-6650 -27 c0 -18 -27 -39 -49 -39 -15 0 -14 57 2 63 22 7 47 -5 47 -24z
m1446 -144 c-15 -16 -73 -20 -92 -7 -6 4 -14 17 -18 30 -6 18 -4 22 13 22 11
0 22 -8 25 -18 8 -25 33 -23 59 4 21 22 22 22 25 4 2 -11 -3 -27 -12 -35z
m1969 25 c3 -5 -1 -10 -9 -10 -9 0 -16 5 -16 10 0 6 4 10 9 10 6 0 13 -4 16
-10z m-92 -108 c9 -48 -2 -72 -34 -72 -12 0 -19 7 -19 20 0 10 -5 30 -11 44
-17 36 -5 58 28 54 24 -3 29 -9 36 -46z m-1975 -4 c14 -14 16 -77 3 -97 -8
-12 -14 -12 -41 -1 -31 13 -50 43 -50 80 0 17 6 20 66 29 5 0 15 -4 22 -11z
m-477 -45 c25 -18 39 -36 39 -50 0 -13 -4 -23 -10 -23 -14 0 -12 -26 3 -42 38
-39 47 -64 47 -130 0 -39 -4 -68 -10 -68 -17 0 -11 -29 16 -78 16 -29 22 -48
15 -50 -6 -2 -11 -17 -11 -33 0 -35 -29 -56 -85 -61 -30 -2 -40 1 -43 13 -2
12 11 22 41 35 37 15 42 20 31 32 -24 23 -66 11 -83 -25 -14 -29 -20 -32 -45
-27 -19 4 -31 1 -37 -7 -6 -10 -9 -8 -9 9 0 13 -6 22 -15 22 -9 0 -15 -9 -15
-25 0 -14 -12 -48 -26 -75 -34 -66 -56 -66 -89 0 -22 43 -24 53 -13 72 25 45
42 58 80 65 30 4 42 12 49 30 16 42 11 49 -31 49 -49 1 -55 6 -40 34 8 14 18
20 30 17 16 -4 18 2 18 49 0 33 -6 58 -14 65 -8 7 -14 30 -14 55 0 34 5 46 21
54 28 15 49 6 49 -22 1 -34 88 -88 119 -74 20 9 22 16 18 48 -4 28 -1 40 11
47 13 8 14 12 3 25 -15 18 -48 21 -70 7 -22 -14 -61 8 -61 34 0 33 15 43 83
54 5 0 26 -11 48 -26z m4849 1 c0 -17 -22 -14 -28 4 -2 7 3 12 12 12 9 0 16
-7 16 -16z m-3396 -27 c7 -29 -7 -41 -33 -28 -23 13 -27 31 -10 48 16 16 36 6
43 -20z m716 -16 c-14 -27 -34 -22 -38 9 -5 28 18 44 36 26 11 -11 11 -18 2
-35z m50 24 c0 -8 -4 -15 -10 -15 -5 0 -7 7 -4 15 4 8 8 15 10 15 2 0 4 -7 4
-15z m-1252 -17 c23 -23 13 -38 -23 -38 -31 0 -35 3 -35 25 0 19 5 25 23 25
13 0 28 -5 35 -12z m526 -14 c20 -8 21 -28 2 -43 -11 -9 -15 -8 -20 5 -7 18
-8 44 -2 44 2 0 11 -3 20 -6z m320 -27 c16 -25 -13 -50 -47 -41 -33 8 -34 17
-5 44 25 23 36 22 52 -3z m182 -19 c13 -13 24 -31 24 -40 0 -9 5 -20 10 -23
12 -7 13 -55 2 -72 -11 -17 -60 -4 -67 18 -4 10 -11 19 -16 19 -6 0 -8 -4 -5
-8 3 -5 6 -36 7 -69 2 -49 -3 -66 -22 -94 -13 -19 -25 -36 -26 -38 -8 -12 -33
26 -33 50 0 15 -4 31 -10 34 -5 3 -10 15 -10 26 0 25 37 99 61 122 11 10 19
31 19 47 0 17 7 33 18 39 23 14 21 14 48 -11z m1042 0 c7 -7 12 -8 12 -4 0 5
7 3 15 -4 21 -17 19 -42 -5 -68 -26 -27 -50 -28 -57 -2 -4 15 -14 20 -39 20
-18 0 -36 -5 -39 -11 -4 -5 -18 -15 -32 -20 -14 -5 -23 -12 -20 -16 7 -6 -23
-63 -34 -63 -4 0 -12 7 -19 15 -7 8 -20 15 -30 15 -10 0 -24 14 -33 32 -15 32
-15 33 11 45 27 13 27 13 -10 10 -34 -3 -38 0 -38 20 0 17 6 23 23 23 12 0 39
3 60 6 31 6 36 4 32 -8 -9 -22 20 -47 46 -41 12 3 24 14 26 24 3 12 20 22 47
28 58 13 70 13 84 -1z m-2605 -40 c-2 -5 1 -16 8 -25 11 -13 10 -18 -9 -34
-13 -10 -25 -28 -27 -41 -3 -13 -9 -24 -15 -26 -5 -2 -10 -13 -10 -23 0 -31
70 -23 86 10 24 48 64 45 64 -5 0 -19 -7 -26 -30 -30 -16 -4 -30 -12 -30 -19
0 -33 -97 -68 -125 -45 -10 8 -19 8 -34 -2 -12 -7 -21 -16 -21 -20 0 -20 -29
-4 -68 37 -24 25 -55 48 -68 51 -31 8 -32 47 -2 68 18 13 24 13 41 1 12 -9 31
-12 50 -8 29 6 30 5 24 -23 -7 -35 6 -64 18 -44 6 9 12 6 21 -11 12 -23 13
-23 20 -5 5 12 3 21 -4 24 -7 2 -12 24 -12 53 0 38 4 52 20 61 12 8 20 24 20
40 0 24 4 28 29 28 17 0 33 5 37 11 4 8 9 7 15 -2 4 -7 5 -17 2 -21z m257 12
c0 -11 -7 -20 -15 -20 -8 0 -15 9 -15 20 0 11 7 20 15 20 8 0 15 -9 15 -20z
m230 -95 c0 -9 -6 -12 -15 -9 -8 4 -15 10 -15 15 0 5 7 9 15 9 8 0 15 -7 15
-15z m3537 9 c-3 -3 -12 -4 -19 -1 -8 3 -5 6 6 6 11 1 17 -2 13 -5z m-5292
-34 c19 -36 19 -40 0 -40 -16 0 -17 1 -19 43 -2 34 0 34 19 -3z m2585 0 c0 -5
-2 -10 -4 -10 -3 0 -8 5 -11 10 -3 6 -1 10 4 10 6 0 11 -4 11 -10z m-2040 -37
c-1 -24 -46 -56 -69 -48 -15 5 -21 -1 -26 -25 -7 -33 -16 -37 -35 -15 -16 20
-6 43 25 55 15 6 25 17 25 30 0 17 7 20 40 20 32 0 40 -4 40 -17z m1620 -7 c0
-39 -11 -56 -35 -56 -16 0 -25 7 -29 24 -9 37 3 56 35 56 24 0 29 -4 29 -24z
m720 16 c0 -13 -23 -32 -39 -32 -11 0 -10 4 4 20 19 21 35 26 35 12z m-550
-100 c11 -31 18 -75 17 -112 -2 -52 -6 -64 -27 -80 -29 -22 -50 -14 -91 33
-34 39 -52 99 -44 146 7 43 12 51 45 72 40 26 78 4 100 -59z m-810 58 c0 -13
-30 -13 -50 0 -11 7 -7 10 18 10 17 0 32 -4 32 -10z m84 -46 c9 -3 16 -12 16
-19 0 -7 7 -18 15 -25 23 -19 18 -29 -19 -35 -41 -8 -65 -2 -94 26 l-22 20 0
-44 c0 -31 8 -56 25 -81 14 -20 25 -43 25 -51 0 -8 5 -15 12 -15 20 0 48 -32
48 -56 0 -14 -10 -30 -24 -39 -21 -14 -23 -19 -13 -45 6 -17 17 -30 24 -30 22
0 24 -19 3 -30 -28 -15 -58 3 -62 37 -2 20 -10 29 -28 33 -19 4 -26 13 -28 38
-3 24 1 32 13 32 19 0 45 23 45 39 0 6 -10 11 -23 11 -13 0 -32 7 -43 15 -10
8 -27 15 -36 15 -10 0 -29 18 -43 40 -14 22 -32 40 -39 40 -10 0 -14 10 -12
34 4 41 12 55 34 55 26 1 123 19 157 30 37 12 49 13 69 5z m1040 -27 c19 -26
19 -28 3 -63 -14 -28 -20 -34 -31 -25 -27 22 -40 70 -27 97 13 30 27 28 55 -9z
m-2924 -17 c0 -11 -4 -20 -10 -20 -5 0 -10 9 -10 20 0 11 5 20 10 20 6 0 10
-9 10 -20z m2766 3 c30 5 55 -21 47 -51 -4 -17 -13 -22 -38 -22 -18 0 -38 -7
-45 -15 -19 -23 -45 -18 -58 10 -16 36 -15 45 9 71 18 19 26 21 42 13 10 -6
30 -9 43 -6z m2264 -8 c0 -8 -4 -15 -10 -15 -5 0 -7 7 -4 15 4 8 8 15 10 15 2
0 4 -7 4 -15z m-2986 -71 c24 -9 20 -44 -4 -44 -15 0 -20 7 -20 25 0 27 1 28
24 19z m308 -11 c8 -10 18 -29 21 -41 5 -21 3 -23 -16 -18 -12 3 -30 6 -39 6
-13 0 -18 8 -18 28 0 45 24 57 52 25z m1016 8 c15 -1 16 -26 0 -51 -7 -10 -9
-23 -5 -27 5 -4 12 -1 17 7 16 25 25 1 28 -76 5 -89 -6 -112 -43 -88 -16 10
-32 13 -47 8 -26 -8 -34 -6 -30 7 1 5 -4 8 -10 7 -14 -3 -15 37 -4 82 3 14 4
19 0 13 -3 -7 -14 -13 -24 -13 -10 0 -31 -7 -46 -15 -35 -18 -56 -19 -72 -3
-21 21 -14 48 12 48 14 0 28 5 31 10 3 6 27 10 52 10 43 0 45 1 41 25 -7 34
25 67 60 61 15 -2 33 -5 40 -5z m-1390 -67 l33 -36 40 16 c22 9 44 14 49 11 5
-3 11 -1 15 5 9 15 74 12 91 -4 8 -8 14 -24 14 -36 0 -27 18 -61 42 -78 12 -9
18 -26 18 -49 0 -26 5 -36 20 -40 11 -3 20 -9 20 -14 0 -5 9 -9 21 -9 17 0 20
-5 17 -37 -3 -33 -7 -38 -30 -41 -28 -3 -68 -44 -68 -69 0 -13 -78 -53 -105
-53 -20 0 -45 39 -38 59 4 9 18 27 32 41 15 14 25 34 24 45 -2 11 0 14 3 8 7
-16 26 -16 59 -1 19 8 25 19 25 42 -1 42 -19 63 -63 71 -35 7 -39 4 -87 -46
l-50 -53 -24 23 c-26 25 -44 79 -30 90 15 10 16 43 2 52 -7 5 -23 9 -36 9 -33
0 -50 21 -53 66 -3 38 5 64 19 64 4 0 22 -16 40 -36z m-598 -4 c0 -5 -4 -10
-10 -10 -5 0 -10 5 -10 10 0 6 5 10 10 10 6 0 10 -4 10 -10z m-744 -45 c4 -8
1 -22 -6 -30 -20 -25 -50 -9 -50 28 0 22 48 24 56 2z m456 -3 c10 -15 27 -19
78 -19 50 0 67 -4 75 -18 8 -13 6 -20 -8 -29 -51 -31 -50 -29 -8 -75 33 -36
39 -47 29 -59 -7 -8 -17 -23 -23 -35 -14 -28 -75 -48 -92 -31 -19 19 -16 47 7
67 15 13 19 24 14 45 -4 15 -11 29 -16 30 -16 7 -8 21 15 25 20 4 19 4 -4 6
-15 0 -32 7 -38 15 -6 7 -25 16 -41 19 -37 8 -71 54 -49 68 22 14 47 10 61 -9z
m2471 -14 c16 1 18 -4 12 -26 -9 -37 -18 -44 -49 -36 -22 5 -26 12 -26 41 0
31 2 34 23 27 12 -4 30 -7 40 -6z m-683 -43 c0 -16 6 -25 15 -25 20 0 19 -12
-5 -43 -12 -15 -27 -24 -35 -20 -17 6 -20 58 -5 68 6 3 10 15 10 26 0 10 5 19
10 19 6 0 10 -11 10 -25z m-2548 -46 c-2 -30 2 -37 23 -47 14 -7 34 -12 45
-12 10 0 22 -5 25 -10 4 -6 12 -10 18 -9 50 6 73 -2 86 -31 17 -41 8 -64 -23
-56 -15 4 -37 -1 -56 -12 -30 -17 -31 -17 -50 6 -23 28 -44 28 -73 1 -22 -21
-48 -21 -135 -4 -69 13 -121 79 -72 92 11 3 20 12 20 20 0 26 28 43 70 43 34
0 46 6 67 30 34 41 59 36 55 -11z m996 16 c18 -40 15 -55 -12 -55 -32 0 -50
24 -42 55 8 33 39 33 54 0z m230 -27 c-6 -18 -28 -21 -28 -4 0 9 7 16 16 16 9
0 14 -5 12 -12z m862 -23 c5 3 11 1 14 -4 4 -5 1 -13 -5 -17 -13 -8 -29 14
-28 36 1 11 3 10 6 -3 2 -9 8 -15 13 -12z m518 -75 c2 -13 13 -31 24 -40 17
-13 21 -32 26 -110 4 -68 2 -91 -7 -86 -6 4 -11 14 -11 22 0 8 -4 14 -8 14 -5
0 -16 15 -25 33 -9 17 -28 51 -42 75 l-25 43 21 40 c22 43 42 47 47 9z m3380
13 c-16 -2 -40 -2 -55 0 -16 2 -3 4 27 4 30 0 43 -2 28 -4z m-5239 -37 c13
-27 12 -31 -9 -48 -31 -25 -50 -8 -50 44 0 35 2 39 22 36 13 -2 29 -15 37 -32z
m-99 -4 c0 -25 -74 -56 -100 -42 -30 16 -25 40 8 40 15 0 34 5 42 10 24 16 50
12 50 -8z m5480 8 c0 -5 9 -10 20 -10 14 0 20 -7 20 -24 0 -26 -28 -36 -108
-36 -32 0 -49 -6 -61 -19 -14 -15 -41 -22 -136 -31 -66 -6 -124 -16 -129 -21
-6 -5 -22 -9 -37 -9 -15 0 -31 -4 -34 -10 -3 -5 -30 -10 -58 -10 -29 0 -65 -7
-81 -15 -15 -8 -34 -15 -41 -15 -16 0 -35 52 -35 96 0 27 -4 34 -20 34 -11 0
-20 5 -20 10 0 6 9 10 20 10 11 0 20 -4 20 -10 0 -18 32 -10 53 13 13 15 21
18 24 10 5 -15 43 -17 43 -3 0 6 18 10 40 10 22 0 40 5 40 10 0 6 37 10 90 10
53 0 90 4 90 10 0 6 57 10 150 10 93 0 150 -4 150 -10z m120 -30 c0 -22 -4
-40 -10 -40 -5 0 -10 18 -10 40 0 22 5 40 10 40 6 0 10 -18 10 -40z m-5900
-37 c0 -8 -13 -19 -30 -24 -16 -6 -30 -18 -30 -26 0 -17 -31 -14 -38 5 -2 7 5
12 17 12 16 0 21 6 21 25 0 14 5 25 10 25 6 0 10 7 10 17 0 14 2 14 20 -2 11
-10 20 -24 20 -32z m1048 25 c7 -7 12 -22 12 -35 0 -19 -5 -23 -30 -23 -26 0
-30 -4 -31 -27 -1 -16 -1 -31 0 -35 0 -5 -14 -8 -33 -8 -32 0 -86 39 -86 62 0
26 23 48 51 48 17 0 32 6 35 15 7 18 65 20 82 3z m828 -12 c10 -10 9 -16 -4
-28 -9 -8 -25 -25 -35 -37 -20 -25 -34 -20 -47 15 -17 44 51 84 86 50z m4464
-6 c0 -5 -9 -10 -20 -10 -11 0 -20 5 -20 10 0 6 9 10 20 10 11 0 20 -4 20 -10z
m-6188 -29 c-1 -13 5 -32 14 -42 8 -9 14 -28 12 -41 -3 -20 -8 -23 -38 -20
-19 1 -44 11 -54 22 -19 18 -19 20 -3 38 9 10 17 31 17 46 0 24 3 27 28 24 22
-2 27 -7 24 -27z m1152 -3 c13 -49 7 -68 -19 -68 -36 0 -51 33 -28 65 23 31
39 32 47 3z m59 8 c5 -14 -10 -36 -25 -36 -4 0 -8 11 -8 25 0 27 24 35 33 11z
m-2366 -22 c-9 -9 -28 6 -21 18 4 6 10 6 17 -1 6 -6 8 -13 4 -17z m1825 -11
c36 -34 35 -42 -4 -77 -30 -26 -33 -27 -45 -10 -16 22 -17 55 -1 89 14 31 16
31 50 -2z m-542 -23 c0 -5 -4 -10 -10 -10 -5 0 -10 5 -10 10 0 6 5 10 10 10 6
0 10 -4 10 -10z m5283 3 c-7 -2 -21 -2 -30 0 -10 3 -4 5 12 5 17 0 24 -2 18
-5z m-5925 -45 c-3 -7 -22 -14 -43 -16 -34 -3 -37 -2 -26 12 16 19 75 22 69 4z
m675 -26 c25 -22 23 -72 -3 -72 -24 0 -56 59 -46 85 6 17 17 14 49 -13z m1471
12 c9 -3 16 -12 16 -20 0 -8 5 -14 10 -14 6 0 10 -6 10 -13 0 -9 -11 -12 -35
-9 -27 3 -40 -1 -54 -17 -10 -11 -26 -21 -35 -21 -22 0 -20 33 4 50 11 8 20
22 20 32 0 19 32 24 64 12z m-120 -45 c5 -4 -2 -13 -18 -20 -31 -14 -53 -1
-42 26 6 17 40 13 60 -6z m-2476 -4 c32 -5 52 -24 52 -50 0 -39 -24 -50 -81
-37 -55 13 -76 28 -79 58 -5 44 -2 47 43 40 23 -4 52 -9 65 -11z m373 -22 c20
-36 15 -70 -13 -78 -28 -10 -48 13 -48 54 0 37 16 64 34 58 6 -2 18 -17 27
-34z m-163 -62 c-15 -24 -24 -26 -42 -9 -29 28 13 69 42 43 12 -10 12 -16 0
-34z m325 -8 c8 -44 -11 -73 -50 -73 -25 0 -33 4 -33 18 0 10 -6 24 -12 30
-16 16 5 32 45 32 15 0 27 5 27 10 0 22 18 8 23 -17z m391 -9 c15 -14 15 -35
0 -81 -2 -7 -14 -13 -27 -13 -19 0 -25 8 -35 47 -10 37 -10 48 0 55 20 12 45
9 62 -8z m-294 -34 c0 -16 -4 -30 -10 -30 -5 0 -10 -17 -10 -39 0 -49 -23 -72
-47 -48 -16 15 -15 18 3 34 27 26 44 59 44 88 0 14 5 25 10 25 6 0 10 -13 10
-30z m-420 -22 c0 -6 8 -20 17 -30 20 -22 7 -40 -22 -32 -22 5 -44 43 -37 62
5 15 42 16 42 0z m1505 -59 c3 -4 -1 -24 -9 -44 -16 -37 -40 -46 -50 -19 -7
19 -8 69 -1 76 8 7 54 -3 60 -13z m894 -3 c13 -15 23 -56 15 -56 -3 0 -12 7
-20 15 -9 8 -26 15 -40 15 -28 0 -32 15 -6 29 24 14 38 13 51 -3z m-1847 -13
c10 -9 18 -25 18 -35 0 -11 9 -31 20 -45 11 -14 17 -29 14 -34 -3 -5 -36 -9
-75 -9 -62 0 -69 -2 -69 -20 0 -14 -10 -22 -32 -28 -24 -6 -34 -15 -36 -32 -2
-13 -10 -30 -18 -37 -8 -8 -14 -21 -14 -28 0 -34 -71 -42 -84 -10 -8 21 3 45
20 45 21 0 30 31 12 41 -21 12 -11 67 13 74 10 4 19 10 19 15 0 12 44 18 68 9
39 -15 52 -1 52 53 0 38 3 49 13 45 8 -3 20 -1 28 4 20 13 30 11 51 -8z m1086
-47 c12 -25 11 -33 -20 -96 -40 -83 -70 -97 -95 -45 -14 29 -14 35 1 63 9 17
16 40 16 50 0 10 9 27 20 37 11 10 20 14 20 10 0 -5 5 -4 12 3 17 17 31 10 46
-22z m546 18 c9 -4 16 -18 16 -34 0 -16 6 -30 13 -33 23 -8 -2 -19 -30 -13
-21 6 -24 9 -12 17 12 7 11 9 -3 9 -22 0 -28 11 -21 38 6 23 12 26 37 16z
m516 -14 c0 -5 -4 -10 -10 -10 -5 0 -10 5 -10 10 0 6 5 10 10 10 6 0 10 -4 10
-10z m555 -3 c12 -1 21 -10 23 -24 3 -21 -1 -23 -47 -25 -28 -1 -58 -2 -67 -2
-22 -1 -39 27 -30 49 5 15 14 17 54 11 26 -4 56 -8 67 -9z m-3315 -37 c0 -5
-4 -10 -10 -10 -5 0 -10 5 -10 10 0 6 5 10 10 10 6 0 10 -4 10 -10z m100 -70
c0 -19 -11 -26 -23 -14 -8 8 3 34 14 34 5 0 9 -9 9 -20z m220 -9 c0 -22 -13
-41 -29 -41 -23 0 -41 19 -34 36 6 15 63 20 63 5z m288 -24 c2 -11 -3 -17 -16
-17 -26 0 -34 11 -20 27 14 17 32 12 36 -10z m1122 -33 c0 -34 -29 -94 -46
-94 -18 0 -24 -13 -14 -30 7 -11 11 -12 24 0 22 18 34 3 13 -17 -13 -13 -19
-14 -31 -4 -9 7 -22 11 -31 8 -29 -12 -27 15 5 48 26 27 30 38 24 56 -12 37
-11 43 11 51 37 11 45 8 45 -18z m510 16 c0 -5 -4 -10 -10 -10 -5 0 -10 5 -10
10 0 6 5 10 10 10 6 0 10 -4 10 -10z m-2014 -44 c8 -8 14 -26 14 -40 0 -30 31
-50 68 -43 14 3 32 3 39 0 14 -5 19 -43 5 -43 -4 0 -12 -10 -17 -22 -9 -21
-16 -23 -69 -19 -72 4 -132 42 -115 72 5 10 9 31 9 48 0 16 3 36 6 45 8 20 41
21 60 2z m1574 -17 c0 -7 8 -17 17 -24 24 -18 3 -42 -43 -47 -55 -6 -66 17
-26 53 34 31 52 37 52 18z m604 -10 c-3 -5 -10 -7 -15 -3 -5 3 -7 10 -3 15 3
5 10 7 15 3 5 -3 7 -10 3 -15z m-1686 -25 c13 -4 17 -70 6 -98 -3 -9 -16 -16
-28 -16 -20 0 -32 -11 -55 -48 -4 -7 -20 -14 -36 -15 -23 -2 -30 3 -35 23 -6
22 -11 25 -48 22 -38 -2 -42 0 -42 21 0 19 10 28 45 43 26 10 48 27 51 39 12
38 23 44 77 39 29 -3 58 -7 65 -10z m1799 -24 c0 -19 8 -39 22 -51 l22 -21
-20 -19 c-16 -15 -21 -32 -21 -70 0 -44 -3 -51 -27 -60 -36 -14 -49 1 -34 39
16 37 21 125 8 133 -15 10 14 79 33 79 12 0 17 -9 17 -30z m-3037 -61 c0 -27
-4 -49 -10 -49 -5 0 -10 9 -10 20 0 13 -7 20 -19 20 -22 0 -35 30 -26 59 5 17
10 18 35 9 28 -9 30 -14 30 -59z m640 -33 c0 -21 -6 -25 -42 -29 -42 -4 -108
-26 -118 -38 -12 -15 -48 -18 -64 -6 -16 12 -17 16 -5 35 10 15 30 24 81 32
37 7 70 16 74 21 3 5 21 9 40 9 29 0 34 -3 34 -24z m3580 -45 c0 -6 -4 -13
-10 -16 -5 -3 -10 1 -10 9 0 9 5 16 10 16 6 0 10 -4 10 -9z m-3555 -11 c-3 -5
-10 -10 -16 -10 -5 0 -9 5 -9 10 0 6 7 10 16 10 8 0 12 -4 9 -10z m3763 3
c-10 -2 -28 -2 -40 0 -13 2 -5 4 17 4 22 1 32 -1 23 -4z m-2308 -44 c0 -20 -8
-23 -27 -11 -7 4 -10 17 -6 30 4 18 8 20 19 11 8 -6 14 -20 14 -30z m-341 -3
c9 -10 8 -16 -4 -26 -21 -17 -67 2 -59 25 8 19 48 20 63 1z m5521 -31 c0 -18
-1 -18 -36 0 l-29 15 33 0 c22 0 32 -5 32 -15z m-5760 -14 c0 -11 -39 -25 -47
-18 -3 3 -2 10 2 16 8 13 45 15 45 2z m5883 -45 c6 -8 10 -7 14 2 6 16 31 15
49 -2 31 -31 4 -66 -50 -66 -23 0 -43 -7 -56 -20 -11 -11 -24 -20 -30 -20 -5
0 -10 -4 -10 -8 0 -13 -80 -12 -80 1 0 7 -7 4 -14 -6 -12 -15 -14 -16 -20 -2
-3 8 -14 15 -24 15 -21 0 -72 36 -72 51 0 5 7 9 15 9 8 0 15 5 15 10 0 6 18
10 40 10 22 0 40 5 40 10 0 6 9 10 20 10 11 0 20 6 20 13 0 8 4 7 10 -3 6 -9
10 -10 10 -3 0 7 18 13 43 15 48 3 68 -1 80 -16z m-5978 -6 c-3 -5 -17 -10
-31 -10 -13 0 -24 5 -24 10 0 6 14 10 31 10 17 0 28 -4 24 -10z m795 -9 c0 -3
3 -16 6 -28 5 -17 2 -23 -10 -23 -9 0 -16 -4 -16 -10 0 -5 -9 -10 -20 -10 -25
0 -28 45 -4 71 14 16 44 16 44 0z m1029 0 c11 -7 11 -15 0 -45 -14 -40 -16
-41 -42 -22 -17 13 -15 36 6 64 11 14 17 15 36 3z m-2504 -10 c3 -5 1 -12 -4
-15 -12 -8 -41 3 -41 15 0 12 37 12 45 0z m-601 -23 c-8 -29 -33 -58 -50 -58
-21 0 -25 17 -9 33 8 9 15 23 15 31 0 10 9 16 26 16 22 0 24 -3 18 -22z m407
-4 c10 -13 10 -20 0 -36 -9 -15 -10 -23 -2 -31 6 -6 11 -22 11 -36 0 -14 10
-35 22 -48 19 -21 20 -26 8 -34 -17 -11 -34 -8 -102 16 -54 19 -62 41 -28 75
27 27 25 46 -6 66 -26 18 -23 29 11 36 44 9 74 6 86 -8z m1269 -5 c0 -14 -16
-11 -29 5 -10 12 -8 13 8 9 12 -3 21 -9 21 -14z m285 -9 c7 -23 -4 -52 -19
-47 -6 2 -12 20 -14 40 -3 30 0 36 12 31 8 -3 18 -14 21 -24z m5275 -35 c0 -8
-4 -15 -10 -15 -5 0 -10 7 -10 15 0 8 5 15 10 15 6 0 10 -7 10 -15z m-4933 -6
c14 -14 5 -49 -13 -49 -9 0 -14 11 -14 30 0 31 9 37 27 19z m647 -25 c4 -9 16
-14 33 -13 52 4 93 -1 93 -11 0 -5 -10 -10 -22 -10 -24 0 -138 -106 -138 -129
0 -8 10 -25 22 -39 22 -23 22 -24 4 -34 -32 -18 -85 -17 -106 2 -20 17 -20 18
10 23 31 7 43 37 15 37 -8 0 -15 5 -15 10 0 6 4 10 9 10 5 0 12 7 15 16 6 15
0 16 -39 11 -35 -5 -52 -2 -78 13 -37 23 -76 25 -124 8 -31 -11 -45 -28 -23
-28 6 0 10 -11 10 -24 0 -46 9 -55 42 -46 16 5 36 14 44 21 8 7 14 7 14 1 0
-5 11 -13 25 -16 15 -4 25 -14 25 -24 0 -10 -11 -29 -25 -42 -14 -13 -25 -29
-25 -35 0 -7 -23 -15 -56 -19 -43 -5 -65 -2 -99 13 l-43 19 10 43 c10 36 9 44
-5 54 -36 26 -13 98 38 122 19 9 35 20 35 25 0 4 11 8 24 8 14 0 28 5 31 10 3
6 26 10 50 10 35 0 45 -4 50 -20 8 -25 42 -26 67 -3 14 13 21 14 30 5 21 -21
48 -13 66 18 19 34 27 37 36 14z m-854 -10 c0 -16 -47 -64 -62 -64 -16 0 -7
24 20 51 32 32 42 35 42 13z m-606 -40 c9 -3 16 -15 16 -25 0 -13 7 -19 24
-19 13 0 29 -6 35 -14 10 -12 7 -18 -19 -31 -31 -16 -33 -16 -69 9 -20 14 -47
26 -59 26 -14 0 -22 6 -22 16 0 10 6 14 14 11 8 -3 22 3 32 14 19 21 24 22 48
13z m-1786 -32 c2 -13 -2 -29 -8 -37 -17 -21 -60 9 -60 42 0 21 4 24 33 21 25
-2 33 -8 35 -26z m1382 -12 c0 -11 -7 -20 -15 -20 -8 0 -15 9 -15 20 0 11 7
20 15 20 8 0 15 -9 15 -20z m1065 -35 c10 -53 7 -83 -11 -123 -19 -40 -34 -37
-49 9 -6 19 -21 38 -32 44 -12 5 -23 20 -26 33 -6 33 45 83 83 80 24 -2 29 -7
35 -43z m-1825 -15 c0 -5 11 -12 25 -16 14 -3 25 -12 25 -20 0 -14 -30 -34
-53 -34 -17 0 -38 45 -31 65 7 17 34 21 34 5z m5811 -77 c-8 -15 -10 -15 -11
-2 0 17 10 32 18 25 2 -3 -1 -13 -7 -23z m-3862 -2 c19 -12 5 -62 -19 -68 -12
-3 -20 -14 -20 -26 0 -24 -27 -57 -47 -57 -16 0 -18 51 -2 67 5 5 11 22 13 37
3 25 30 55 51 56 6 0 16 -4 24 -9z m1381 -101 c0 -5 -5 -10 -11 -10 -5 0 -7 5
-4 10 3 6 8 10 11 10 2 0 4 -4 4 -10z m-2608 -47 c35 -33 38 -78 6 -86 -12 -4
-40 -4 -63 0 -30 4 -44 1 -54 -11 -21 -25 -67 -21 -74 6 -8 28 6 44 43 52 16
3 44 19 61 36 39 37 46 37 81 3z m-1402 -50 c0 -5 15 -9 33 -10 88 -6 100 -33
43 -99 -19 -21 -48 -55 -64 -74 -30 -34 -30 -35 -51 -16 -26 24 -26 25 4 60
14 16 25 42 25 57 0 15 3 35 7 45 5 13 3 16 -10 11 -17 -6 -24 13 -10 26 9 9
23 9 23 0z m530 -43 c0 -5 6 -10 14 -10 21 0 27 -27 10 -41 -20 -16 -63 -2
-78 26 -6 11 -15 23 -21 27 -5 4 9 8 33 8 23 0 42 -4 42 -10z m1423 -70 c5
-21 -26 -70 -45 -70 -10 0 -3 84 9 103 7 11 30 -10 36 -33z m-1377 -32 c9 -14
-23 -38 -42 -31 -8 3 -14 14 -14 24 0 22 44 27 56 7z m556 -51 c37 -19 73 -37
80 -40 20 -8 -11 -27 -43 -27 -24 0 -59 26 -51 38 2 2 -11 13 -29 24 -20 12
-34 16 -38 9 -5 -8 -63 -9 -91 -2 -3 1 5 10 17 20 31 26 76 19 155 -22z m578
13 c0 -5 -9 -10 -20 -10 -11 0 -20 5 -20 10 0 6 9 10 20 10 11 0 20 -4 20 -10z
m-230 -15 c0 -8 -4 -15 -10 -15 -5 0 -7 7 -4 15 4 8 8 15 10 15 2 0 4 -7 4
-15z m373 -10 c55 -7 57 -8 57 -37 0 -67 -42 -86 -105 -49 -25 15 -29 23 -27
49 3 25 0 31 -11 26 -17 -6 -31 11 -22 26 3 5 15 6 29 1 12 -5 48 -12 79 -16z
m767 -64 c0 -6 -4 -13 -10 -16 -5 -3 -10 1 -10 9 0 9 5 16 10 16 6 0 10 -4 10
-9z m1680 -11 c0 -5 -5 -10 -11 -10 -5 0 -7 5 -4 10 3 6 8 10 11 10 2 0 4 -4
4 -10z m-3039 -26 c10 -13 10 -17 -2 -25 -29 -18 -69 -3 -69 28 0 19 55 16 71
-3z m3259 2 c0 -11 -19 -15 -25 -6 -3 5 1 10 9 10 9 0 16 -2 16 -4z m-3870
-25 c0 -38 70 -43 90 -6 15 29 30 31 69 10 41 -21 56 -65 23 -65 -26 0 -42
-20 -42 -52 0 -37 -22 -46 -117 -50 -85 -3 -113 7 -113 43 0 10 10 27 22 38
17 16 19 23 9 35 -7 8 -9 25 -5 40 5 20 12 26 35 26 22 0 29 -5 29 -19z m831
3 c10 -12 10 -17 0 -23 -17 -11 -61 -1 -61 13 0 29 39 36 61 10z m-1225 -71
c18 -20 30 -41 27 -46 -3 -5 -9 -3 -14 4 -6 10 -11 11 -16 3 -15 -21 -64 -26
-84 -8 -20 18 -25 44 -9 44 6 0 19 9 30 20 11 11 23 20 27 20 3 0 21 -17 39
-37z m-527 -13 c-14 -9 -29 -4 -29 10 0 12 34 18 39 7 2 -5 -3 -13 -10 -17z
m1861 11 c0 -12 -26 -32 -33 -25 -9 10 4 34 19 34 8 0 14 -4 14 -9z m-350 -56
c0 -31 -10 -37 -36 -20 -13 8 -29 12 -37 10 -7 -3 -22 3 -32 15 -18 20 -18 20
11 20 16 0 38 7 49 16 18 13 21 13 32 -3 7 -9 13 -26 13 -38z m808 23 c2 -12
-3 -18 -16 -18 -11 0 -22 -6 -25 -12 -6 -19 -37 9 -37 34 0 16 6 19 37 16 27
-2 39 -8 41 -20z m5562 12 c0 -5 -4 -10 -10 -10 -5 0 -10 5 -10 10 0 6 5 10
10 10 6 0 10 -4 10 -10z m-7193 -76 c3 -8 -1 -22 -9 -31 -12 -12 -20 -13 -37
-4 -26 14 -27 27 -3 40 25 15 42 13 49 -5z m4203 2 c0 -2 -13 -6 -29 -8 -17
-2 -28 -1 -25 4 5 8 54 12 54 4z m-3437 -28 c4 -12 4 -24 2 -26 -7 -8 -35 20
-35 34 0 23 27 16 33 -8z m1799 -2 c18 -26 8 -46 -21 -46 -42 0 -61 9 -61 31
0 34 62 45 82 15z m-2981 -53 c-9 -15 -10 -12 -10 17 0 29 1 32 10 18 7 -12 7
-24 0 -35z m7619 37 c0 -5 -7 -10 -15 -10 -8 0 -15 5 -15 10 0 6 7 10 15 10 8
0 15 -4 15 -10z m-4430 -24 c0 -3 -4 -8 -10 -11 -5 -3 -10 -1 -10 4 0 6 5 11
10 11 6 0 10 -2 10 -4z m2847 -18 c-3 -8 -6 -5 -6 6 -1 11 2 17 5 13 3 -3 4
-12 1 -19z m-1827 -8 c0 -5 -4 -10 -10 -10 -5 0 -10 5 -10 10 0 6 5 10 10 10
6 0 10 -4 10 -10z m3620 -40 c0 -22 -4 -40 -10 -40 -5 0 -10 -9 -10 -20 0 -11
5 -20 10 -20 6 0 10 -16 10 -35 0 -28 -4 -35 -20 -35 -19 0 -20 7 -20 95 0 88
1 95 20 95 17 0 20 -7 20 -40z m-7490 20 c13 -9 13 -12 -3 -25 -21 -15 -47
-10 -47 9 0 26 24 33 50 16z m795 -10 c20 -22 14 -50 -12 -50 -37 0 -93 21
-93 35 0 35 76 47 105 15z m2045 10 c-19 -13 -30 -13 -30 0 0 6 10 10 23 10
18 0 19 -2 7 -10z m-3350 -52 c0 -7 12 -23 28 -35 l27 -23 -44 3 c-45 2 -48 0
-73 -58 -10 -23 -21 -31 -46 -33 -50 -5 -54 23 -9 65 21 18 37 41 37 51 0 10
5 23 12 30 16 16 68 16 68 0z m3660 -38 c0 -5 -4 -10 -9 -10 -6 0 -13 5 -16
10 -3 6 1 10 9 10 9 0 16 -4 16 -10z m-1162 -42 c18 -18 15 -41 -9 -67 l-21
-22 21 -23 c25 -27 29 -97 6 -116 -17 -14 -20 -66 -4 -76 6 -3 16 -1 22 5 6 6
28 11 48 11 29 0 39 -5 44 -21 11 -33 -9 -45 -48 -31 -18 7 -43 12 -54 12 -21
0 -53 29 -57 52 -1 7 -7 22 -13 33 -5 11 -13 32 -17 48 -3 15 -12 27 -19 27
-7 0 -22 6 -32 14 -19 14 -19 15 5 35 14 11 31 20 38 21 15 0 16 47 0 52 -19
7 0 26 32 33 17 4 30 11 30 16 0 13 14 11 28 -3z m1226 3 c3 -4 -5 -13 -19
-19 -18 -8 -26 -8 -34 2 -6 7 -8 16 -4 19 9 10 51 9 57 -2z m414 -64 c-6 -18
-17 -39 -26 -47 -13 -13 -14 -12 -8 10 4 14 9 40 13 58 4 25 9 30 19 22 9 -9
10 -19 2 -43z m3581 -4 c1 -7 -8 -13 -19 -13 -11 0 -20 7 -20 15 0 8 5 15 10
15 6 0 10 8 11 18 0 14 2 14 9 -3 5 -11 9 -26 9 -32z m-6024 16 c-5 -14 -1
-25 12 -34 10 -7 19 -24 20 -37 8 -75 7 -83 -7 -85 -8 -2 -28 8 -45 22 -28 23
-29 26 -12 39 25 19 22 23 -30 48 l-47 22 30 13 c16 6 39 12 52 13 12 0 22 5
22 10 0 6 3 10 6 10 3 0 2 -9 -1 -21z m6125 11 c0 -5 9 -10 20 -10 13 0 20 -7
20 -20 0 -11 -4 -20 -10 -20 -5 0 -10 5 -10 10 0 6 -9 10 -20 10 -11 0 -20 -4
-20 -10 0 -5 -9 -10 -20 -10 -11 0 -20 5 -20 10 0 6 9 10 20 10 13 0 20 7 20
20 0 11 5 20 10 20 6 0 10 -4 10 -10z m-2970 -4 c0 -3 -4 -8 -10 -11 -5 -3
-10 -1 -10 4 0 6 5 11 10 11 6 0 10 -2 10 -4z m-3740 -21 c16 -20 5 -30 -37
-38 -26 -5 -33 -3 -33 9 0 38 47 57 70 29z m2275 4 c9 -13 -13 -66 -28 -72
-19 -7 -57 11 -57 28 0 8 6 15 13 15 8 0 22 9 32 20 20 22 31 25 40 9z m-2857
-50 c2 -9 -4 -24 -14 -33 -10 -11 -14 -25 -10 -42 8 -30 -9 -64 -31 -64 -42 0
-89 24 -110 57 -13 19 -23 40 -23 48 0 16 114 55 155 52 19 -1 31 -8 33 -18z
m856 5 c15 -14 15 -17 0 -31 -14 -14 -17 -14 -31 0 -13 13 -14 19 -3 31 15 20
15 20 34 0z m620 -1 c8 -20 -10 -33 -46 -33 -33 0 -44 15 -26 34 18 21 64 20
72 -1z m1486 -58 c0 -23 -7 -56 -16 -73 -8 -18 -14 -44 -12 -59 2 -18 -2 -28
-9 -27 -7 1 -22 2 -33 3 -30 2 -35 26 -11 50 l21 21 -21 30 c-20 27 -21 31 -7
52 9 13 26 33 38 46 30 31 50 14 50 -43z m-2255 -6 c20 -37 13 -49 -29 -49
-18 0 -45 -9 -58 -20 -14 -10 -28 -17 -31 -14 -7 7 -57 -67 -57 -84 0 -7 4
-11 9 -7 6 3 15 -3 20 -13 9 -18 5 -20 -50 -26 -111 -11 -170 13 -154 64 5 16
13 18 60 14 51 -5 55 -4 55 15 0 24 -36 37 -74 27 -20 -5 -25 -1 -29 20 -5 30
11 39 51 29 15 -4 40 -9 56 -11 17 -2 33 -8 36 -14 3 -5 18 1 32 14 19 16 25
29 21 44 -4 16 0 23 13 28 11 3 33 11 49 19 37 15 59 6 80 -36z m863 23 c3
-18 -1 -22 -23 -22 -21 0 -26 4 -21 16 3 9 6 20 6 26 0 20 35 2 38 -20z m1066
12 c3 -9 6 -29 6 -46 0 -29 -1 -30 -22 -16 -30 20 -42 42 -35 62 8 21 43 21
51 0z m4676 -14 c0 -13 -7 -20 -20 -20 -13 0 -20 7 -20 20 0 13 7 20 20 20 13
0 20 -7 20 -20z m-4819 -27 c7 -20 7 -33 0 -45 -6 -10 -11 -33 -11 -51 0 -42
-15 -57 -57 -57 -31 0 -33 2 -27 28 4 15 15 43 24 62 9 19 20 47 24 63 3 15
13 27 21 27 9 0 20 -12 26 -27z m-2973 -14 c2 -10 -6 -19 -18 -22 -23 -6 -33
4 -24 28 8 20 38 16 42 -6z m785 -41 c7 -48 -11 -63 -57 -48 -42 14 -48 41
-14 64 38 27 65 21 71 -16z m1527 -6 c13 -10 25 -36 30 -60 7 -40 6 -42 -17
-42 -31 0 -73 46 -73 80 0 44 22 53 60 22z m-750 -27 c10 -13 9 -15 -8 -15
-22 0 -36 13 -25 24 10 10 20 7 33 -9z m2170 -16 c0 -20 -41 -79 -51 -73 -5 3
-9 23 -9 45 0 37 2 39 30 39 17 0 30 -5 30 -11z m-3700 -29 c0 -11 -4 -20 -10
-20 -5 0 -10 9 -10 20 0 11 5 20 10 20 6 0 10 -9 10 -20z m3034 4 c7 -19 9
-17 -23 -34 -33 -17 -51 2 -26 30 22 24 41 26 49 4z m-1766 -10 c30 -8 28 -17
-7 -31 -33 -12 -41 -8 -41 19 0 19 10 22 48 12z m4912 -4 c0 -5 -4 -10 -10
-10 -5 0 -10 5 -10 10 0 6 5 10 10 10 6 0 10 -4 10 -10z m-4067 -28 c13 -12
27 -19 32 -15 4 5 5 2 1 -5 -4 -7 -1 -14 7 -18 14 -5 23 -74 9 -74 -4 0 -16 7
-26 15 -11 8 -35 15 -52 15 -19 0 -49 11 -70 25 -39 26 -69 32 -79 15 -7 -12
-65 -14 -65 -2 0 5 10 19 21 31 16 17 29 22 49 18 15 -3 31 -2 36 3 10 9 56
17 92 15 12 -1 33 -11 45 -23z m3397 12 c0 -2 -9 -4 -21 -4 -11 0 -18 4 -14
10 5 8 35 3 35 -6z m-2390 -14 c0 -11 -4 -20 -9 -20 -13 0 -32 26 -24 33 13
14 33 6 33 -13z m-1421 -21 l20 -22 -24 -18 c-13 -11 -31 -19 -40 -19 -9 0
-21 -13 -26 -30 -8 -22 -19 -31 -44 -36 -48 -9 -69 1 -88 41 -20 43 -21 53 -4
69 24 24 47 31 116 34 61 2 73 -1 90 -19z m3075 6 c3 -8 12 -15 21 -15 8 0 15
-4 15 -10 0 -5 -9 -10 -19 -10 -11 0 -26 -3 -34 -6 -10 -3 -16 3 -19 20 -3 14
-3 28 0 31 10 10 30 5 36 -10z m56 5 c0 -5 -11 -10 -25 -10 -14 0 -25 5 -25
10 0 6 11 10 25 10 14 0 25 -4 25 -10z m-1287 -7 c-7 -2 -19 -2 -25 0 -7 3 -2
5 12 5 14 0 19 -2 13 -5z m-3223 -43 c14 -11 31 -20 38 -20 41 -1 -20 -45 -75
-55 -24 -3 -53 -15 -67 -26 -39 -31 -63 -25 -75 19 -14 49 -14 72 2 77 26 8
101 14 89 7 -9 -7 -10 -16 -1 -41 9 -26 14 -30 20 -19 5 8 6 25 4 38 -9 44 22
54 65 20z m335 0 c0 -9 -11 -16 -27 -18 -23 -3 -28 1 -28 18 0 17 5 21 28 18
16 -2 27 -9 27 -18z m2725 0 c0 -11 -4 -20 -10 -20 -5 0 -10 9 -10 20 0 11 5
20 10 20 6 0 10 -9 10 -20z m-1012 -33 c13 -12 32 -38 42 -58 11 -20 31 -51
46 -69 l28 -32 -35 -29 c-19 -16 -40 -29 -46 -29 -7 0 -30 17 -51 38 -31 31
-42 53 -56 111 -10 40 -15 79 -12 88 8 20 52 9 84 -20z m820 -4 c-2 -5 -10
-21 -17 -38 -24 -54 -28 -60 -46 -63 -10 -2 -21 2 -26 10 -13 20 -11 86 4 91
20 8 89 8 85 0z m1805 0 c-7 -2 -21 -2 -30 0 -10 3 -4 5 12 5 17 0 24 -2 18
-5z m767 -18 c0 -8 -4 -15 -10 -15 -5 0 -7 7 -4 15 4 8 8 15 10 15 2 0 4 -7 4
-15z m-1287 -54 c-3 -11 -11 -22 -19 -25 -8 -3 -14 -12 -14 -21 0 -11 -11 -15
-40 -15 -36 0 -40 3 -40 25 0 26 15 34 23 13 4 -9 8 -10 14 -2 8 10 60 41 75
43 3 1 4 -8 1 -18z m-3433 -38 c-4 -60 -1 -71 19 -66 11 3 27 14 37 24 9 10
27 19 38 19 12 0 34 7 50 15 16 9 37 13 45 9 9 -4 39 -10 66 -13 43 -5 50 -9
53 -29 6 -43 -70 -85 -84 -47 -4 8 -14 15 -24 15 -11 0 -21 4 -24 9 -7 11 -56
2 -56 -11 0 -5 -6 -16 -12 -24 -36 -43 -50 -54 -71 -54 -13 0 -32 -9 -42 -20
-10 -11 -25 -20 -33 -20 -9 0 -45 -7 -80 -16 -59 -15 -65 -15 -80 0 -15 15
-13 18 18 46 19 16 41 29 49 30 7 0 11 6 7 15 -9 24 10 61 55 105 49 48 71 52
69 13z m572 3 c22 7 105 -14 114 -28 18 -29 -71 -59 -150 -51 l-59 6 7 -26 c7
-31 -7 -35 -41 -12 -24 17 -21 50 3 41 19 -7 18 9 -2 39 -13 20 -14 26 -3 29
29 10 65 12 88 4 13 -5 33 -6 43 -2z m3976 -19 c2 -12 -1 -15 -12 -11 -19 7
-22 38 -3 32 6 -3 13 -12 15 -21z m-3710 -19 c2 -13 -6 -35 -16 -48 -18 -22
-23 -23 -58 -15 -55 14 -57 41 -6 55 22 5 43 17 46 26 9 23 31 12 34 -18z
m1087 4 c6 -17 -10 -32 -36 -32 -14 0 -16 6 -10 52 2 12 40 -4 46 -20z m-760
-2 c-3 -5 -15 -10 -26 -10 -10 0 -19 5 -19 10 0 6 12 10 26 10 14 0 23 -4 19
-10z m1390 -20 c-3 -5 -14 -10 -23 -10 -15 0 -15 2 -2 10 20 13 33 13 25 0z
m2198 0 c8 0 8 -3 0 -11 -13 -13 -43 -5 -43 12 0 6 7 8 16 5 9 -3 21 -6 27 -6z
m-5608 -10 c3 -5 38 -10 77 -10 54 0 79 -5 104 -21 19 -11 34 -25 34 -30 0
-18 -23 -53 -47 -72 -12 -10 -23 -27 -23 -38 0 -15 -7 -19 -35 -19 -19 0 -35
-4 -35 -10 0 -5 -13 -10 -30 -10 -16 0 -30 4 -30 9 0 5 -9 13 -20 16 -11 3
-20 13 -20 21 0 11 11 13 44 11 l43 -4 -8 35 c-4 20 -5 40 -3 44 6 10 -14 38
-26 38 -4 0 -10 -8 -13 -19 -3 -13 -13 -18 -33 -17 -24 1 -30 6 -32 29 -4 37
37 73 53 47z m5838 -37 c5 -29 -15 -55 -21 -28 -2 8 -10 15 -18 15 -9 0 -22 6
-30 14 -16 17 -5 24 37 25 21 1 28 -5 32 -26z m-3487 -29 c10 -8 14 -13 7 -10
-6 4 -14 -3 -18 -14 -8 -25 -50 -27 -64 -3 -7 13 -5 21 7 30 23 17 44 16 68
-3z m1094 -6 c0 -11 -38 -10 -44 1 -3 5 5 8 19 7 14 0 25 -4 25 -8z m-3039
-20 c14 -16 16 -24 8 -35 -18 -21 -29 -15 -29 16 0 16 -6 32 -12 34 -10 4 -9
6 1 6 7 1 22 -9 32 -21z m216 -12 c2 -23 -8 -38 -49 -77 -29 -27 -55 -49 -59
-49 -12 0 -19 29 -19 76 0 60 26 86 83 82 38 -3 42 -6 44 -32z m1477 -31 c17
-44 -3 -72 -41 -58 -28 10 -63 45 -63 63 0 27 40 40 71 24 15 -7 29 -21 33
-29z m2236 5 c0 -38 -2 -40 -29 -40 -17 0 -33 5 -37 11 -6 11 42 69 58 69 4 0
8 -18 8 -40z m910 -40 c0 -5 -4 -10 -10 -10 -5 0 -10 5 -10 10 0 6 5 10 10 10
6 0 10 -4 10 -10z m39 -16 c-14 -17 -29 -18 -29 -3 0 5 5 7 10 4 6 -3 10 1 10
10 0 9 5 13 10 10 8 -5 7 -11 -1 -21z m-3389 6 c0 -5 8 -10 19 -10 27 0 43
-24 39 -62 -3 -28 -7 -34 -33 -37 -30 -4 -30 -4 -5 -11 l25 -8 -27 -1 c-15 -1
-30 -5 -33 -11 -3 -5 -10 -10 -14 -10 -10 0 -22 125 -15 145 7 17 44 21 44 5z
m4285 0 c3 -5 -8 -24 -25 -41 -44 -46 -39 -81 13 -94 15 -4 24 -11 21 -16 -5
-8 9 -13 29 -10 4 0 7 -3 7 -9 0 -14 -36 -16 -87 -5 -19 5 -22 10 -16 36 5 28
4 30 -18 27 -32 -4 -54 39 -38 74 14 33 100 61 114 38z m-2055 -52 c0 -39 -14
-79 -23 -68 -7 10 5 110 14 110 5 0 9 -19 9 -42z m-1326 -38 c55 -5 59 -7 80
-42 17 -31 19 -40 8 -55 -24 -36 -33 -68 -27 -104 5 -29 12 -39 32 -44 35 -8
123 22 123 43 0 17 41 42 67 42 7 0 16 -11 19 -26 7 -27 -3 -121 -14 -138 -10
-17 -30 -91 -51 -194 -10 -51 -23 -98 -29 -105 -5 -6 -12 -27 -16 -45 -5 -31
-63 -187 -88 -239 -16 -32 -46 -13 -53 35 -3 20 -10 57 -16 82 -6 25 -15 83
-20 130 -17 171 -58 377 -81 407 -14 17 -13 102 0 115 16 16 14 49 -3 72 -16
21 -21 117 -7 130 4 4 9 -7 12 -26 5 -32 6 -33 64 -38z m-520 27 c51 -85 55
-98 43 -124 -9 -21 -8 -27 8 -39 10 -8 16 -17 12 -20 -10 -10 -56 30 -57 48 0
10 -9 41 -20 69 -10 29 -17 56 -14 60 2 4 0 10 -6 14 -14 9 -13 25 3 25 6 0
21 -15 31 -33z m846 18 c0 -9 -6 -12 -15 -9 -8 4 -12 10 -9 15 8 14 24 10 24
-6z m1194 -1 c4 -9 4 -19 1 -22 -3 -3 -5 1 -5 8 0 7 -9 1 -21 -14 -23 -30 -39
-26 -39 9 0 35 52 50 64 19z m-2951 -18 c11 -27 -23 -61 -52 -51 -24 7 -30 60
-8 68 24 10 52 2 60 -17z m1028 -49 c-10 -9 -11 -8 -5 6 3 10 9 15 12 12 3 -3
0 -11 -7 -18z m-380 -7 c5 0 9 -7 9 -15 0 -9 -9 -15 -25 -15 -19 0 -25 5 -25
21 0 15 4 19 16 15 9 -3 20 -6 25 -6z m1984 0 c3 -5 19 -10 35 -10 16 0 32 -4
35 -10 3 -5 1 -10 -6 -10 -8 0 -10 -12 -5 -39 5 -33 2 -45 -18 -68 -13 -15
-26 -26 -28 -23 -2 3 -18 33 -35 67 -28 56 -29 64 -16 82 15 23 28 27 38 11z
m-585 -36 c0 -33 25 -53 66 -54 31 0 32 -2 38 -52 3 -29 7 -82 8 -118 2 -63 1
-64 -29 -77 -17 -7 -40 -24 -51 -38 -23 -29 -29 -30 -52 -10 -25 22 -68 4 -81
-35 -12 -33 -18 -34 -106 -24 l-53 7 0 41 c0 23 4 46 9 52 5 5 11 32 14 59 11
105 15 113 58 120 26 5 53 20 82 47 23 22 37 37 30 34 -22 -12 -23 11 0 36 20
23 39 35 60 37 4 1 7 -11 7 -25z m-2350 1 c0 -8 -7 -15 -15 -15 -16 0 -20 12
-8 23 11 12 23 8 23 -8z m2826 -43 c3 -15 17 -50 30 -79 40 -87 32 -102 -38
-71 -45 19 -46 21 -41 57 4 26 -1 51 -15 79 -20 41 -20 42 -1 42 10 0 19 5 19
10 0 22 40 -11 46 -38z m-3132 29 c10 -16 -5 -41 -25 -41 -14 0 -19 7 -19 25
0 18 5 25 19 25 11 0 22 -4 25 -9z m950 -56 c30 -15 66 -25 92 -25 44 0 54
-10 54 -55 0 -18 11 -28 49 -46 30 -15 56 -36 66 -54 45 -84 67 -120 76 -123
5 -2 9 -8 9 -14 0 -26 51 -76 83 -82 48 -9 77 -46 77 -99 0 -37 -4 -44 -33
-57 -19 -9 -34 -25 -37 -40 -5 -20 -12 -25 -35 -25 -24 0 -31 5 -34 25 -6 49
-43 53 -91 9 l-34 -31 -143 4 c-118 3 -147 7 -161 21 -14 15 -15 21 -4 38 12
18 11 21 -7 26 -12 3 -21 9 -21 14 0 19 -39 8 -54 -16 -18 -28 -65 -34 -88
-12 -7 6 -26 13 -43 15 -16 2 -39 9 -50 16 -11 7 -45 15 -75 19 -81 8 -188 46
-195 68 -4 11 -12 19 -19 19 -8 0 -34 22 -58 49 -25 27 -53 50 -63 52 -10 2
-21 11 -25 19 -33 67 -34 69 -16 89 9 10 38 22 63 26 38 5 56 2 109 -22 62
-27 77 -46 54 -69 -22 -22 1 -44 45 -44 38 0 43 3 48 28 4 18 16 31 36 40 17
8 31 21 31 31 0 25 55 54 90 46 23 -5 32 -2 42 14 9 15 23 21 46 21 36 0 62
19 62 44 0 9 -8 16 -19 16 -27 0 -34 38 -10 58 43 37 118 40 183 7z m1876 5
c0 -5 -7 -10 -15 -10 -8 0 -15 5 -15 10 0 6 7 10 15 10 8 0 15 -4 15 -10z
m706 -15 c3 -14 3 -51 -2 -83 -5 -31 -7 -66 -6 -76 3 -26 -26 -56 -53 -56 -13
0 -28 -7 -35 -15 -11 -13 -27 -15 -84 -9 -39 3 -75 10 -81 15 -6 6 14 33 52
72 34 34 63 71 65 82 2 11 12 21 24 23 12 2 36 19 54 38 40 40 57 43 66 9z
m911 -21 c-3 -3 -12 -4 -19 -1 -8 3 -5 6 6 6 11 1 17 -2 13 -5z m-4057 -23 c0
-5 -7 -12 -16 -15 -22 -9 -24 -8 -24 9 0 8 9 15 20 15 11 0 20 -4 20 -9z
m3433 -8 c-4 -11 -3 -14 5 -9 8 5 12 0 12 -14 0 -12 5 -18 10 -15 6 3 10 1 10
-5 0 -6 5 -8 10 -5 6 3 10 1 10 -4 0 -6 -3 -11 -7 -11 -53 -3 -89 -16 -109
-38 -27 -31 -31 -47 -8 -38 8 3 13 2 10 -3 -7 -11 22 -23 35 -15 5 3 9 -2 9
-10 0 -17 34 -31 51 -20 12 7 87 -13 104 -28 5 -4 0 -8 -11 -8 -26 0 -84 -28
-84 -41 0 -12 -37 -12 -45 1 -3 6 -15 10 -26 10 -10 0 -19 4 -19 8 0 5 -17 17
-38 27 -31 15 -41 28 -51 62 -14 47 -15 44 54 126 25 30 47 47 62 47 17 0 21
-4 16 -17z m-2387 -36 c25 -39 41 -88 47 -145 2 -23 16 -60 31 -82 34 -51 35
-84 4 -75 -13 4 -27 12 -33 19 -5 6 -22 17 -37 25 -16 8 -28 18 -28 23 0 4 -8
8 -17 8 -34 0 -143 135 -143 177 0 7 9 17 19 23 11 5 25 16 33 23 47 47 95 49
124 4z m1534 23 c0 -5 -4 -10 -10 -10 -5 0 -10 5 -10 10 0 6 5 10 10 10 6 0
10 -4 10 -10z m1187 -27 c13 -27 29 -42 55 -51 42 -16 88 -9 88 13 0 8 5 15
10 15 6 0 10 -7 10 -15 0 -8 12 -18 28 -21 15 -4 47 -26 72 -49 25 -23 59 -47
75 -52 23 -8 30 -15 28 -34 -5 -68 -28 -111 -46 -86 -7 9 -10 9 -14 0 -3 -8
-14 -11 -29 -7 -25 6 -114 -10 -151 -28 -12 -6 -23 -18 -26 -28 -2 -9 -14 -19
-26 -23 -11 -3 -19 -1 -16 3 3 5 1 11 -5 15 -5 3 -10 15 -10 26 0 11 -10 33
-22 50 -22 29 -25 30 -93 28 l-70 -2 -3 41 c-4 49 30 126 65 150 25 16 31 60
11 80 -9 9 -5 12 19 12 26 0 34 -6 50 -37z m-4286 4 c-13 -13 -26 -3 -16 12 3
6 11 8 17 5 6 -4 6 -10 -1 -17z m1746 4 c28 -17 32 -26 37 -78 13 -132 19
-168 30 -175 8 -5 8 -10 -1 -19 -10 -10 -14 -7 -22 13 -5 14 -15 31 -23 39
-22 24 -45 72 -53 109 -3 19 -13 50 -22 68 -26 59 -3 77 54 43z m-1157 -71 c0
-5 -9 -10 -20 -10 -11 0 -20 5 -20 10 0 6 9 10 20 10 11 0 20 -4 20 -10z
m-1792 -32 c3 -14 -3 -18 -27 -18 -25 0 -31 4 -31 21 0 16 5 20 27 17 17 -2
29 -10 31 -20z m4220 -39 c-3 -8 -7 -3 -11 10 -4 17 -3 21 5 13 5 -5 8 -16 6
-23z m192 21 c0 -5 -4 -10 -10 -10 -5 0 -10 5 -10 10 0 6 5 10 10 10 6 0 10
-4 10 -10z m-3739 -30 c23 -13 24 -28 2 -52 -24 -26 -69 -24 -77 5 -9 35 -7
45 12 50 30 8 43 7 63 -3z m5243 -19 c3 -5 -5 -11 -19 -13 -26 -5 -35 6 -12
15 19 8 25 8 31 -2z m-4544 -66 c7 -8 18 -15 25 -15 6 0 20 -9 29 -19 15 -16
15 -22 4 -40 -7 -12 -18 -21 -25 -21 -7 0 -13 -9 -13 -20 0 -18 -7 -20 -62
-20 -35 0 -97 -5 -138 -10 l-75 -10 -30 33 c-31 34 -59 77 -53 82 5 5 31 7 61
6 20 -1 33 -10 44 -30 16 -27 22 -29 93 -34 81 -5 90 -3 72 15 -19 19 -14 59
10 79 26 23 41 24 58 4z m3740 -63 c0 -5 -13 -12 -30 -14 -34 -5 -42 16 -13
37 13 10 19 10 30 -1 7 -7 13 -17 13 -22z m-1318 -21 c4 -3 10 -18 13 -33 8
-30 -1 -35 -80 -40 -62 -4 -69 14 -26 61 25 26 35 31 58 25 15 -4 31 -9 35
-13z m1558 -1 c0 -5 -4 -10 -9 -10 -6 0 -13 5 -16 10 -3 6 1 10 9 10 9 0 16
-4 16 -10z m-4406 -41 c-8 -13 -24 -1 -24 18 0 13 3 13 15 3 8 -7 12 -16 9
-21z m4863 15 c6 -17 -46 -40 -65 -28 -26 17 -25 32 3 29 14 -2 28 1 31 6 7
12 26 7 31 -7z m-4128 -43 c8 -11 20 -17 27 -14 8 3 16 -2 20 -10 4 -11 18
-15 49 -14 48 2 88 -24 78 -51 -5 -12 -2 -14 13 -7 56 23 114 17 114 -13 0
-14 8 -16 50 -14 59 5 85 -10 70 -38 -8 -14 -5 -28 11 -55 22 -37 18 -55 -19
-78 -10 -6 -11 -20 -7 -48 7 -38 6 -39 -24 -39 -25 0 -34 6 -44 28 -6 15 -15
29 -19 32 -4 3 -8 30 -10 60 -2 40 -7 55 -18 56 -8 1 -25 2 -37 3 -13 1 -23 7
-23 16 0 8 -4 15 -8 15 -5 0 -22 11 -38 25 -38 34 -95 58 -169 74 -102 21
-140 35 -143 54 -7 36 103 52 127 18z m4191 15 c0 -3 -4 -8 -10 -11 -5 -3 -10
-1 -10 4 0 6 5 11 10 11 6 0 10 -2 10 -4z m-93 -22 c-3 -3 -12 -4 -19 -1 -8 3
-5 6 6 6 11 1 17 -2 13 -5z m-4492 -40 c9 -10 13 -20 8 -25 -14 -14 -103 1
-103 17 0 11 14 16 67 23 6 0 19 -6 28 -15z m125 -19 c0 -3 -13 -18 -28 -35
-37 -38 -111 -57 -129 -33 -18 23 -9 30 55 43 31 7 64 16 72 21 17 10 30 11
30 4z m1860 -86 c0 -6 -4 -7 -10 -4 -5 3 -10 11 -10 16 0 6 5 7 10 4 6 -3 10
-11 10 -16z m-2850 -19 c0 -5 -4 -10 -10 -10 -5 0 -10 5 -10 10 0 6 5 10 10
10 6 0 10 -4 10 -10z m1152 -18 c8 -8 4 -13 -15 -17 -36 -9 -61 -3 -65 17 -3
13 4 16 33 14 20 -2 41 -8 47 -14z m2439 -5 c-13 -13 -26 -3 -16 12 3 6 11 8
17 5 6 -4 6 -10 -1 -17z m-1549 -7 l21 -19 -29 -11 c-47 -18 -62 -66 -22 -72
34 -5 31 -21 -10 -45 -25 -14 -43 -18 -53 -13 -9 5 -25 6 -37 3 -17 -4 -22
-13 -22 -40 0 -19 5 -43 11 -54 14 -27 4 -54 -28 -68 -22 -10 -29 -9 -48 9
-13 12 -35 20 -57 20 -40 0 -72 28 -62 54 3 9 11 16 17 16 5 0 2 8 -7 19 -20
22 -14 57 18 107 24 38 44 42 69 14 11 -13 29 -20 51 -20 31 0 34 3 40 34 11
56 41 86 87 86 26 0 47 -7 61 -20z m-1349 -75 c4 -8 2 -17 -3 -20 -6 -4 -10
-4 -10 -1 0 2 -3 11 -6 20 -3 9 -2 16 4 16 5 0 12 -7 15 -15z m2577 -9 c0 -23
-16 -36 -46 -36 -23 0 -16 40 9 50 33 13 37 12 37 -14z m-74 -83 c-11 -11 -17
4 -9 23 7 18 8 18 11 1 2 -10 1 -21 -2 -24z"/>
<path d="M3180 3921 c0 -12 5 -21 10 -21 6 0 10 6 10 14 0 8 -4 18 -10 21 -5
3 -10 -3 -10 -14z"/>
<path d="M3666 951 c-4 -5 -2 -12 3 -15 5 -4 12 -2 15 3 4 5 2 12 -3 15 -5 4
-12 2 -15 -3z"/>
<path d="M3585 730 c-3 -5 -18 -10 -32 -10 -37 0 -93 -40 -93 -67 0 -12 -3
-28 -6 -36 -6 -17 42 -70 59 -64 7 2 21 18 32 35 11 17 27 31 35 32 9 0 22 9
30 20 8 11 22 20 32 20 10 0 18 5 18 10 0 6 9 10 19 10 11 0 23 5 26 10 3 6 1
10 -5 10 -6 0 -20 9 -32 20 -23 21 -72 27 -83 10z"/>
<path d="M3378 573 c7 -3 16 -2 19 1 4 3 -2 6 -13 5 -11 0 -14 -3 -6 -6z"/>
<path d="M4939 6724 c-10 -12 -21 -113 -13 -125 7 -12 118 12 130 29 19 24 17
31 -10 42 -13 5 -28 22 -34 39 -9 25 -16 30 -37 29 -14 -1 -31 -8 -36 -14z"/>
<path d="M3637 6304 c-8 -8 3 -66 14 -78 5 -6 9 -1 9 13 0 12 4 19 10 16 6 -3
10 5 10 18 0 14 -7 28 -16 31 -19 7 -19 7 -27 0z"/>
<path d="M2275 4860 c3 -5 8 -10 11 -10 2 0 4 5 4 10 0 6 -5 10 -11 10 -5 0
-7 -4 -4 -10z"/>
<path d="M2366 3645 c-3 -8 -1 -15 4 -15 6 0 10 7 10 15 0 8 -2 15 -4 15 -2 0
-6 -7 -10 -15z"/>
<path d="M1630 3391 c0 -12 5 -21 10 -21 6 0 10 6 10 14 0 8 -4 18 -10 21 -5
3 -10 -3 -10 -14z"/>
<path d="M1625 3170 c-3 -5 3 -10 14 -10 12 0 21 5 21 10 0 6 -6 10 -14 10 -8
0 -18 -4 -21 -10z"/>
<path d="M1570 3140 c-16 -10 -13 -17 10 -20 29 -4 40 0 40 15 0 17 -27 20
-50 5z"/>
<path d="M1420 2690 c0 -5 5 -10 11 -10 6 0 9 -6 6 -13 -4 -10 2 -13 19 -9 20
3 24 0 24 -18 0 -19 4 -21 28 -16 69 17 84 18 93 5 4 -7 11 -10 16 -6 12 12
-18 27 -56 27 -23 0 -39 7 -53 25 -14 18 -29 25 -54 25 -19 0 -34 -4 -34 -10z"/>
<path d="M1551 2546 c-10 -12 -8 -13 8 -9 12 3 21 9 21 14 0 14 -16 11 -29 -5z"/>
<path d="M1845 2430 c-3 -5 -1 -10 4 -10 6 0 11 5 11 10 0 6 -2 10 -4 10 -3 0
-8 -4 -11 -10z"/>
<path d="M1320 2350 c0 -5 5 -10 10 -10 6 0 10 5 10 10 0 6 -4 10 -10 10 -5 0
-10 -4 -10 -10z"/>
<path d="M1317 2266 c-4 -10 -1 -13 9 -9 7 3 14 0 14 -6 0 -6 5 -11 10 -11 6
0 10 9 10 20 0 24 -35 28 -43 6z"/>
<path d="M9690 1675 c0 -8 7 -15 15 -15 8 0 15 7 15 15 0 8 -7 15 -15 15 -8 0
-15 -7 -15 -15z"/>
<path d="M9571 1634 c0 -11 3 -14 6 -6 3 7 2 16 -1 19 -3 4 -6 -2 -5 -13z"/>
<path d="M480 990 c0 -5 7 -10 16 -10 8 0 12 5 9 10 -3 6 -10 10 -16 10 -5 0
-9 -4 -9 -10z"/>
<path d="M9685 988 c-22 -6 -43 -16 -47 -23 -4 -7 -25 -11 -50 -9 -24 1 -63
-1 -88 -4 -44 -6 -44 -6 -15 -14 21 -5 15 -6 -23 -3 -67 5 -87 -1 -67 -21 16
-16 102 -19 107 -4 2 6 42 15 91 21 48 7 87 16 87 20 0 5 9 9 20 9 11 0 20 5
20 10 0 6 14 10 30 10 17 0 30 5 30 10 0 12 -42 11 -95 -2z"/>
<path d="M848 778 c-19 -24 -37 -53 -41 -66 -4 -19 -1 -24 24 -29 27 -5 29 -9
29 -49 0 -24 5 -44 10 -44 10 0 30 41 30 61 0 16 -18 10 -23 -8 -2 -10 -2 -3
0 16 2 18 13 43 24 54 11 12 17 28 13 39 -3 10 2 25 10 34 24 23 19 34 -13 34
-22 0 -37 -10 -63 -42z"/>
<path d="M1025 657 c-17 -11 -42 -31 -57 -45 -23 -21 -25 -27 -13 -38 7 -8 22
-14 32 -13 16 0 16 1 -2 9 -18 8 -18 9 5 9 24 1 50 36 50 67 0 7 6 14 13 17 6
2 10 7 7 10 -3 3 -19 -4 -35 -16z"/>
<path d="M9619 322 c-20 -2 -27 -9 -27 -25 0 -12 -8 -53 -17 -92 -9 -38 -17
-86 -17 -105 1 -19 -3 -37 -8 -40 -5 -3 -12 -18 -15 -33 l-7 -27 126 0 126 0
0 164 0 164 -67 -2 c-38 0 -80 -2 -94 -4z"/>
<path d="M2645 203 c-11 -2 -30 -20 -43 -39 -22 -33 -22 -37 -7 -48 25 -18 93
-19 110 -2 19 19 20 66 1 66 -8 0 -16 7 -20 15 -3 8 -9 14 -13 14 -4 -1 -17
-4 -28 -6z"/>
<path d="M3061 174 c-20 -14 -22 -23 -19 -72 4 -50 7 -57 29 -62 13 -3 34 -4
47 -2 20 4 23 10 20 46 -3 34 1 43 20 51 25 11 29 40 6 49 -29 11 -79 6 -103
-10z"/>
<path d="M2863 48 c-13 -6 -23 -15 -23 -20 0 -5 -10 -13 -22 -18 -17 -6 -4 -9
50 -9 39 -1 72 1 72 4 0 4 -49 55 -53 54 -1 0 -12 -5 -24 -11z"/>
<path d="M6575 53 c-30 -5 -65 -29 -65 -45 0 -4 30 -8 67 -8 52 0 64 3 55 12
-7 7 -12 20 -12 30 0 10 -3 17 -7 17 -5 -1 -21 -4 -38 -6z"/>
<path d="M2960 10 c0 -5 9 -10 20 -10 11 0 20 5 20 10 0 6 -9 10 -20 10 -11 0
-20 -4 -20 -10z"/>
</g>
</svg>
